<?xml version="1.0" encoding="utf-8" standalone="no"?>
<!DOCTYPE svg PUBLIC "-//W3C//DTD SVG 1.1//EN"
  "http://www.w3.org/Graphics/SVG/1.1/DTD/svg11.dtd">
<svg xmlns:xlink="http://www.w3.org/1999/xlink" width="864pt" height="360pt" viewBox="0 0 864 360" xmlns="http://www.w3.org/2000/svg" version="1.1">
 <metadata>
  <rdf:RDF xmlns:dc="http://purl.org/dc/elements/1.1/" xmlns:cc="http://creativecommons.org/ns#" xmlns:rdf="http://www.w3.org/1999/02/22-rdf-syntax-ns#">
   <cc:Work>
    <dc:type rdf:resource="http://purl.org/dc/dcmitype/StillImage"/>
    <dc:date>2026-03-26T18:33:48.081744</dc:date>
    <dc:format>image/svg+xml</dc:format>
    <dc:creator>
     <cc:Agent>
      <dc:title>Matplotlib v3.10.8, https://matplotlib.org/</dc:title>
     </cc:Agent>
    </dc:creator>
   </cc:Work>
  </rdf:RDF>
 </metadata>
 <defs>
  <style type="text/css">*{stroke-linejoin: round; stroke-linecap: butt}</style>
 </defs>
 <g id="figure_1">
  <g id="patch_1">
   <path d="M 0 360 
L 864 360 
L 864 0 
L 0 0 
z
" style="fill: #ffffff"/>
  </g>
  <g id="axes_1">
   <g id="patch_2">
    <path d="M 69.77 282.744958 
L 853.2 282.744958 
L 853.2 10.8 
L 69.77 10.8 
z
" style="fill: #ffffff"/>
   </g>
   <g id="patch_3">
    <path d="M 105.380455 282.744958 
L 115.070374 282.744958 
L 115.070374 272.350823 
L 105.380455 272.350823 
z
" clip-path="url(#p8043729b0c)" style="fill: #1f77b4"/>
   </g>
   <g id="patch_4">
    <path d="M 178.054852 282.744958 
L 187.744771 282.744958 
L 187.744771 265.124048 
L 178.054852 265.124048 
z
" clip-path="url(#p8043729b0c)" style="fill: #1f77b4"/>
   </g>
   <g id="patch_5">
    <path d="M 250.729249 282.744958 
L 260.419168 282.744958 
L 260.419168 269.460113 
L 250.729249 269.460113 
z
" clip-path="url(#p8043729b0c)" style="fill: #1f77b4"/>
   </g>
   <g id="patch_6">
    <path d="M 323.403646 282.744958 
L 333.093565 282.744958 
L 333.093565 272.350823 
L 323.403646 272.350823 
z
" clip-path="url(#p8043729b0c)" style="fill: #1f77b4"/>
   </g>
   <g id="patch_7">
    <path d="M 396.078043 282.744958 
L 405.767962 282.744958 
L 405.767962 262.233338 
L 396.078043 262.233338 
z
" clip-path="url(#p8043729b0c)" style="fill: #1f77b4"/>
   </g>
   <g id="patch_8">
    <path d="M 468.75244 282.744958 
L 478.442359 282.744958 
L 478.442359 265.124048 
L 468.75244 265.124048 
z
" clip-path="url(#p8043729b0c)" style="fill: #1f77b4"/>
   </g>
   <g id="patch_9">
    <path d="M 541.426837 282.744958 
L 551.116756 282.744958 
L 551.116756 272.350823 
L 541.426837 272.350823 
z
" clip-path="url(#p8043729b0c)" style="fill: #1f77b4"/>
   </g>
   <g id="patch_10">
    <path d="M 614.101234 282.744958 
L 623.791153 282.744958 
L 623.791153 23.74976 
L 614.101234 23.74976 
z
" clip-path="url(#p8043729b0c)" style="fill: #1f77b4"/>
   </g>
   <g id="patch_11">
    <path d="M 686.775631 282.744958 
L 696.46555 282.744958 
L 696.46555 161.058486 
L 686.775631 161.058486 
z
" clip-path="url(#p8043729b0c)" style="fill: #1f77b4"/>
   </g>
   <g id="patch_12">
    <path d="M 759.450028 282.744958 
L 769.139947 282.744958 
L 769.139947 226.099462 
L 759.450028 226.099462 
z
" clip-path="url(#p8043729b0c)" style="fill: #1f77b4"/>
   </g>
   <g id="patch_13">
    <path d="M 115.070374 282.744958 
L 124.760294 282.744958 
L 124.760294 272.350823 
L 115.070374 272.350823 
z
" clip-path="url(#p8043729b0c)" style="fill: #ff7f0e"/>
   </g>
   <g id="patch_14">
    <path d="M 187.744771 282.744958 
L 197.434691 282.744958 
L 197.434691 265.124048 
L 187.744771 265.124048 
z
" clip-path="url(#p8043729b0c)" style="fill: #ff7f0e"/>
   </g>
   <g id="patch_15">
    <path d="M 260.419168 282.744958 
L 270.109088 282.744958 
L 270.109088 269.460113 
L 260.419168 269.460113 
z
" clip-path="url(#p8043729b0c)" style="fill: #ff7f0e"/>
   </g>
   <g id="patch_16">
    <path d="M 333.093565 282.744958 
L 342.783485 282.744958 
L 342.783485 272.350823 
L 333.093565 272.350823 
z
" clip-path="url(#p8043729b0c)" style="fill: #ff7f0e"/>
   </g>
   <g id="patch_17">
    <path d="M 405.767962 282.744958 
L 415.457882 282.744958 
L 415.457882 262.233338 
L 405.767962 262.233338 
z
" clip-path="url(#p8043729b0c)" style="fill: #ff7f0e"/>
   </g>
   <g id="patch_18">
    <path d="M 478.442359 282.744958 
L 488.132279 282.744958 
L 488.132279 265.124048 
L 478.442359 265.124048 
z
" clip-path="url(#p8043729b0c)" style="fill: #ff7f0e"/>
   </g>
   <g id="patch_19">
    <path d="M 551.116756 282.744958 
L 560.806676 282.744958 
L 560.806676 272.350823 
L 551.116756 272.350823 
z
" clip-path="url(#p8043729b0c)" style="fill: #ff7f0e"/>
   </g>
   <g id="patch_20">
    <path d="M 623.791153 282.744958 
L 633.481073 282.744958 
L 633.481073 23.74976 
L 623.791153 23.74976 
z
" clip-path="url(#p8043729b0c)" style="fill: #ff7f0e"/>
   </g>
   <g id="patch_21">
    <path d="M 696.46555 282.744958 
L 706.15547 282.744958 
L 706.15547 161.058486 
L 696.46555 161.058486 
z
" clip-path="url(#p8043729b0c)" style="fill: #ff7f0e"/>
   </g>
   <g id="patch_22">
    <path d="M 769.139947 282.744958 
L 778.829867 282.744958 
L 778.829867 226.099462 
L 769.139947 226.099462 
z
" clip-path="url(#p8043729b0c)" style="fill: #ff7f0e"/>
   </g>
   <g id="patch_23">
    <path d="M 124.760294 282.744958 
L 134.450213 282.744958 
L 134.450213 272.364938 
L 124.760294 272.364938 
z
" clip-path="url(#p8043729b0c)" style="fill: #2ca02c"/>
   </g>
   <g id="patch_24">
    <path d="M 197.434691 282.744958 
L 207.12461 282.744958 
L 207.12461 265.138162 
L 197.434691 265.138162 
z
" clip-path="url(#p8043729b0c)" style="fill: #2ca02c"/>
   </g>
   <g id="patch_25">
    <path d="M 270.109088 282.744958 
L 279.799007 282.744958 
L 279.799007 269.474228 
L 270.109088 269.474228 
z
" clip-path="url(#p8043729b0c)" style="fill: #2ca02c"/>
   </g>
   <g id="patch_26">
    <path d="M 342.783485 282.744958 
L 352.473404 282.744958 
L 352.473404 272.364938 
L 342.783485 272.364938 
z
" clip-path="url(#p8043729b0c)" style="fill: #2ca02c"/>
   </g>
   <g id="patch_27">
    <path d="M 415.457882 282.744958 
L 425.147801 282.744958 
L 425.147801 263.692807 
L 415.457882 263.692807 
z
" clip-path="url(#p8043729b0c)" style="fill: #2ca02c"/>
   </g>
   <g id="patch_28">
    <path d="M 488.132279 282.744958 
L 497.822199 282.744958 
L 497.822199 265.138162 
L 488.132279 265.138162 
z
" clip-path="url(#p8043729b0c)" style="fill: #2ca02c"/>
   </g>
   <g id="patch_29">
    <path d="M 560.806676 282.744958 
L 570.496596 282.744958 
L 570.496596 272.364938 
L 560.806676 272.364938 
z
" clip-path="url(#p8043729b0c)" style="fill: #2ca02c"/>
   </g>
   <g id="patch_30">
    <path d="M 633.481073 282.744958 
L 643.170993 282.744958 
L 643.170993 25.20923 
L 633.481073 25.20923 
z
" clip-path="url(#p8043729b0c)" style="fill: #2ca02c"/>
   </g>
   <g id="patch_31">
    <path d="M 706.15547 282.744958 
L 715.84539 282.744958 
L 715.84539 162.517956 
L 706.15547 162.517956 
z
" clip-path="url(#p8043729b0c)" style="fill: #2ca02c"/>
   </g>
   <g id="patch_32">
    <path d="M 778.829867 282.744958 
L 788.519787 282.744958 
L 788.519787 227.558932 
L 778.829867 227.558932 
z
" clip-path="url(#p8043729b0c)" style="fill: #2ca02c"/>
   </g>
   <g id="patch_33">
    <path d="M 134.450213 282.744958 
L 144.140133 282.744958 
L 144.140133 272.364938 
L 134.450213 272.364938 
z
" clip-path="url(#p8043729b0c)" style="fill: #d62728"/>
   </g>
   <g id="patch_34">
    <path d="M 207.12461 282.744958 
L 216.81453 282.744958 
L 216.81453 265.138162 
L 207.12461 265.138162 
z
" clip-path="url(#p8043729b0c)" style="fill: #d62728"/>
   </g>
   <g id="patch_35">
    <path d="M 279.799007 282.744958 
L 289.488927 282.744958 
L 289.488927 269.474228 
L 279.799007 269.474228 
z
" clip-path="url(#p8043729b0c)" style="fill: #d62728"/>
   </g>
   <g id="patch_36">
    <path d="M 352.473404 282.744958 
L 362.163324 282.744958 
L 362.163324 272.364938 
L 352.473404 272.364938 
z
" clip-path="url(#p8043729b0c)" style="fill: #d62728"/>
   </g>
   <g id="patch_37">
    <path d="M 425.147801 282.744958 
L 434.837721 282.744958 
L 434.837721 263.692807 
L 425.147801 263.692807 
z
" clip-path="url(#p8043729b0c)" style="fill: #d62728"/>
   </g>
   <g id="patch_38">
    <path d="M 497.822199 282.744958 
L 507.512118 282.744958 
L 507.512118 265.138162 
L 497.822199 265.138162 
z
" clip-path="url(#p8043729b0c)" style="fill: #d62728"/>
   </g>
   <g id="patch_39">
    <path d="M 570.496596 282.744958 
L 580.186515 282.744958 
L 580.186515 272.364938 
L 570.496596 272.364938 
z
" clip-path="url(#p8043729b0c)" style="fill: #d62728"/>
   </g>
   <g id="patch_40">
    <path d="M 643.170993 282.744958 
L 652.860912 282.744958 
L 652.860912 26.654585 
L 643.170993 26.654585 
z
" clip-path="url(#p8043729b0c)" style="fill: #d62728"/>
   </g>
   <g id="patch_41">
    <path d="M 715.84539 282.744958 
L 725.535309 282.744958 
L 725.535309 162.517956 
L 715.84539 162.517956 
z
" clip-path="url(#p8043729b0c)" style="fill: #d62728"/>
   </g>
   <g id="patch_42">
    <path d="M 788.519787 282.744958 
L 798.209706 282.744958 
L 798.209706 227.558932 
L 788.519787 227.558932 
z
" clip-path="url(#p8043729b0c)" style="fill: #d62728"/>
   </g>
   <g id="patch_43">
    <path d="M 144.140133 282.744958 
L 153.830053 282.744958 
L 153.830053 272.339531 
L 144.140133 272.339531 
z
" clip-path="url(#p8043729b0c)" style="fill: #9467bd"/>
   </g>
   <g id="patch_44">
    <path d="M 216.81453 282.744958 
L 226.50445 282.744958 
L 226.50445 265.061943 
L 216.81453 265.061943 
z
" clip-path="url(#p8043729b0c)" style="fill: #9467bd"/>
   </g>
   <g id="patch_45">
    <path d="M 289.488927 282.744958 
L 299.178847 282.744958 
L 299.178847 269.398008 
L 289.488927 269.398008 
z
" clip-path="url(#p8043729b0c)" style="fill: #9467bd"/>
   </g>
   <g id="patch_46">
    <path d="M 362.163324 282.744958 
L 371.853244 282.744958 
L 371.853244 272.314124 
L 362.163324 272.314124 
z
" clip-path="url(#p8043729b0c)" style="fill: #9467bd"/>
   </g>
   <g id="patch_47">
    <path d="M 434.837721 282.744958 
L 444.527641 282.744958 
L 444.527641 262.171233 
L 434.837721 262.171233 
z
" clip-path="url(#p8043729b0c)" style="fill: #9467bd"/>
   </g>
   <g id="patch_48">
    <path d="M 507.512118 282.744958 
L 517.202038 282.744958 
L 517.202038 265.061943 
L 507.512118 265.061943 
z
" clip-path="url(#p8043729b0c)" style="fill: #9467bd"/>
   </g>
   <g id="patch_49">
    <path d="M 580.186515 282.744958 
L 589.876435 282.744958 
L 589.876435 272.314124 
L 580.186515 272.314124 
z
" clip-path="url(#p8043729b0c)" style="fill: #9467bd"/>
   </g>
   <g id="patch_50">
    <path d="M 652.860912 282.744958 
L 662.550832 282.744958 
L 662.550832 25.121718 
L 652.860912 25.121718 
z
" clip-path="url(#p8043729b0c)" style="fill: #9467bd"/>
   </g>
   <g id="patch_51">
    <path d="M 725.535309 282.744958 
L 735.225229 282.744958 
L 735.225229 162.430445 
L 725.535309 162.430445 
z
" clip-path="url(#p8043729b0c)" style="fill: #9467bd"/>
   </g>
   <g id="patch_52">
    <path d="M 798.209706 282.744958 
L 807.899626 282.744958 
L 807.899626 227.47142 
L 798.209706 227.47142 
z
" clip-path="url(#p8043729b0c)" style="fill: #9467bd"/>
   </g>
   <g id="patch_53">
    <path d="M 153.830053 282.744958 
L 163.519972 282.744958 
L 163.519972 272.364938 
L 153.830053 272.364938 
z
" clip-path="url(#p8043729b0c)" style="fill: #8c564b"/>
   </g>
   <g id="patch_54">
    <path d="M 226.50445 282.744958 
L 236.194369 282.744958 
L 236.194369 265.138162 
L 226.50445 265.138162 
z
" clip-path="url(#p8043729b0c)" style="fill: #8c564b"/>
   </g>
   <g id="patch_55">
    <path d="M 299.178847 282.744958 
L 308.868766 282.744958 
L 308.868766 269.474228 
L 299.178847 269.474228 
z
" clip-path="url(#p8043729b0c)" style="fill: #8c564b"/>
   </g>
   <g id="patch_56">
    <path d="M 371.853244 282.744958 
L 381.543163 282.744958 
L 381.543163 272.364938 
L 371.853244 272.364938 
z
" clip-path="url(#p8043729b0c)" style="fill: #8c564b"/>
   </g>
   <g id="patch_57">
    <path d="M 444.527641 282.744958 
L 454.21756 282.744958 
L 454.21756 263.692807 
L 444.527641 263.692807 
z
" clip-path="url(#p8043729b0c)" style="fill: #8c564b"/>
   </g>
   <g id="patch_58">
    <path d="M 517.202038 282.744958 
L 526.891957 282.744958 
L 526.891957 265.138162 
L 517.202038 265.138162 
z
" clip-path="url(#p8043729b0c)" style="fill: #8c564b"/>
   </g>
   <g id="patch_59">
    <path d="M 589.876435 282.744958 
L 599.566354 282.744958 
L 599.566354 272.364938 
L 589.876435 272.364938 
z
" clip-path="url(#p8043729b0c)" style="fill: #8c564b"/>
   </g>
   <g id="patch_60">
    <path d="M 662.550832 282.744958 
L 672.240751 282.744958 
L 672.240751 26.654585 
L 662.550832 26.654585 
z
" clip-path="url(#p8043729b0c)" style="fill: #8c564b"/>
   </g>
   <g id="patch_61">
    <path d="M 735.225229 282.744958 
L 744.915148 282.744958 
L 744.915148 162.517956 
L 735.225229 162.517956 
z
" clip-path="url(#p8043729b0c)" style="fill: #8c564b"/>
   </g>
   <g id="patch_62">
    <path d="M 807.899626 282.744958 
L 817.589545 282.744958 
L 817.589545 227.558932 
L 807.899626 227.558932 
z
" clip-path="url(#p8043729b0c)" style="fill: #8c564b"/>
   </g>
   <g id="matplotlib.axis_1">
    <g id="xtick_1">
     <g id="line2d_1">
      <defs>
       <path id="m4dd57f9490" d="M 0 0 
L 0 3.5 
" style="stroke: #000000; stroke-width: 0.8"/>
      </defs>
      <g>
       <use xlink:href="#m4dd57f9490" x="134.450213" y="282.744958" style="stroke: #000000; stroke-width: 0.8"/>
      </g>
     </g>
     <g id="text_1">
      <!-- BM1 -->
      <g transform="translate(128.675692 310.569253) rotate(-45) scale(0.1 -0.1)">
       <defs>
        <path id="DejaVuSans-42" d="M 1259 2228 
L 1259 519 
L 2272 519 
Q 2781 519 3026 730 
Q 3272 941 3272 1375 
Q 3272 1813 3026 2020 
Q 2781 2228 2272 2228 
L 1259 2228 
z
M 1259 4147 
L 1259 2741 
L 2194 2741 
Q 2656 2741 2882 2914 
Q 3109 3088 3109 3444 
Q 3109 3797 2882 3972 
Q 2656 4147 2194 4147 
L 1259 4147 
z
M 628 4666 
L 2241 4666 
Q 2963 4666 3353 4366 
Q 3744 4066 3744 3513 
Q 3744 3084 3544 2831 
Q 3344 2578 2956 2516 
Q 3422 2416 3680 2098 
Q 3938 1781 3938 1306 
Q 3938 681 3513 340 
Q 3088 0 2303 0 
L 628 0 
L 628 4666 
z
" transform="scale(0.015625)"/>
        <path id="DejaVuSans-4d" d="M 628 4666 
L 1569 4666 
L 2759 1491 
L 3956 4666 
L 4897 4666 
L 4897 0 
L 4281 0 
L 4281 4097 
L 3078 897 
L 2444 897 
L 1241 4097 
L 1241 0 
L 628 0 
L 628 4666 
z
" transform="scale(0.015625)"/>
        <path id="DejaVuSans-31" d="M 794 531 
L 1825 531 
L 1825 4091 
L 703 3866 
L 703 4441 
L 1819 4666 
L 2450 4666 
L 2450 531 
L 3481 531 
L 3481 0 
L 794 0 
L 794 531 
z
" transform="scale(0.015625)"/>
       </defs>
       <use xlink:href="#DejaVuSans-42"/>
       <use xlink:href="#DejaVuSans-4d" transform="translate(68.603516 0)"/>
       <use xlink:href="#DejaVuSans-31" transform="translate(154.882812 0)"/>
      </g>
     </g>
    </g>
    <g id="xtick_2">
     <g id="line2d_2">
      <g>
       <use xlink:href="#m4dd57f9490" x="207.12461" y="282.744958" style="stroke: #000000; stroke-width: 0.8"/>
      </g>
     </g>
     <g id="text_2">
      <!-- BM2 -->
      <g transform="translate(201.350089 310.569253) rotate(-45) scale(0.1 -0.1)">
       <defs>
        <path id="DejaVuSans-32" d="M 1228 531 
L 3431 531 
L 3431 0 
L 469 0 
L 469 531 
Q 828 903 1448 1529 
Q 2069 2156 2228 2338 
Q 2531 2678 2651 2914 
Q 2772 3150 2772 3378 
Q 2772 3750 2511 3984 
Q 2250 4219 1831 4219 
Q 1534 4219 1204 4116 
Q 875 4013 500 3803 
L 500 4441 
Q 881 4594 1212 4672 
Q 1544 4750 1819 4750 
Q 2544 4750 2975 4387 
Q 3406 4025 3406 3419 
Q 3406 3131 3298 2873 
Q 3191 2616 2906 2266 
Q 2828 2175 2409 1742 
Q 1991 1309 1228 531 
z
" transform="scale(0.015625)"/>
       </defs>
       <use xlink:href="#DejaVuSans-42"/>
       <use xlink:href="#DejaVuSans-4d" transform="translate(68.603516 0)"/>
       <use xlink:href="#DejaVuSans-32" transform="translate(154.882812 0)"/>
      </g>
     </g>
    </g>
    <g id="xtick_3">
     <g id="line2d_3">
      <g>
       <use xlink:href="#m4dd57f9490" x="279.799007" y="282.744958" style="stroke: #000000; stroke-width: 0.8"/>
      </g>
     </g>
     <g id="text_3">
      <!-- BM3 -->
      <g transform="translate(274.024486 310.569253) rotate(-45) scale(0.1 -0.1)">
       <defs>
        <path id="DejaVuSans-33" d="M 2597 2516 
Q 3050 2419 3304 2112 
Q 3559 1806 3559 1356 
Q 3559 666 3084 287 
Q 2609 -91 1734 -91 
Q 1441 -91 1130 -33 
Q 819 25 488 141 
L 488 750 
Q 750 597 1062 519 
Q 1375 441 1716 441 
Q 2309 441 2620 675 
Q 2931 909 2931 1356 
Q 2931 1769 2642 2001 
Q 2353 2234 1838 2234 
L 1294 2234 
L 1294 2753 
L 1863 2753 
Q 2328 2753 2575 2939 
Q 2822 3125 2822 3475 
Q 2822 3834 2567 4026 
Q 2313 4219 1838 4219 
Q 1578 4219 1281 4162 
Q 984 4106 628 3988 
L 628 4550 
Q 988 4650 1302 4700 
Q 1616 4750 1894 4750 
Q 2613 4750 3031 4423 
Q 3450 4097 3450 3541 
Q 3450 3153 3228 2886 
Q 3006 2619 2597 2516 
z
" transform="scale(0.015625)"/>
       </defs>
       <use xlink:href="#DejaVuSans-42"/>
       <use xlink:href="#DejaVuSans-4d" transform="translate(68.603516 0)"/>
       <use xlink:href="#DejaVuSans-33" transform="translate(154.882812 0)"/>
      </g>
     </g>
    </g>
    <g id="xtick_4">
     <g id="line2d_4">
      <g>
       <use xlink:href="#m4dd57f9490" x="352.473404" y="282.744958" style="stroke: #000000; stroke-width: 0.8"/>
      </g>
     </g>
     <g id="text_4">
      <!-- BM4 -->
      <g transform="translate(346.698883 310.569253) rotate(-45) scale(0.1 -0.1)">
       <defs>
        <path id="DejaVuSans-34" d="M 2419 4116 
L 825 1625 
L 2419 1625 
L 2419 4116 
z
M 2253 4666 
L 3047 4666 
L 3047 1625 
L 3713 1625 
L 3713 1100 
L 3047 1100 
L 3047 0 
L 2419 0 
L 2419 1100 
L 313 1100 
L 313 1709 
L 2253 4666 
z
" transform="scale(0.015625)"/>
       </defs>
       <use xlink:href="#DejaVuSans-42"/>
       <use xlink:href="#DejaVuSans-4d" transform="translate(68.603516 0)"/>
       <use xlink:href="#DejaVuSans-34" transform="translate(154.882812 0)"/>
      </g>
     </g>
    </g>
    <g id="xtick_5">
     <g id="line2d_5">
      <g>
       <use xlink:href="#m4dd57f9490" x="425.147801" y="282.744958" style="stroke: #000000; stroke-width: 0.8"/>
      </g>
     </g>
     <g id="text_5">
      <!-- BM5 -->
      <g transform="translate(419.37328 310.569253) rotate(-45) scale(0.1 -0.1)">
       <defs>
        <path id="DejaVuSans-35" d="M 691 4666 
L 3169 4666 
L 3169 4134 
L 1269 4134 
L 1269 2991 
Q 1406 3038 1543 3061 
Q 1681 3084 1819 3084 
Q 2600 3084 3056 2656 
Q 3513 2228 3513 1497 
Q 3513 744 3044 326 
Q 2575 -91 1722 -91 
Q 1428 -91 1123 -41 
Q 819 9 494 109 
L 494 744 
Q 775 591 1075 516 
Q 1375 441 1709 441 
Q 2250 441 2565 725 
Q 2881 1009 2881 1497 
Q 2881 1984 2565 2268 
Q 2250 2553 1709 2553 
Q 1456 2553 1204 2497 
Q 953 2441 691 2322 
L 691 4666 
z
" transform="scale(0.015625)"/>
       </defs>
       <use xlink:href="#DejaVuSans-42"/>
       <use xlink:href="#DejaVuSans-4d" transform="translate(68.603516 0)"/>
       <use xlink:href="#DejaVuSans-35" transform="translate(154.882812 0)"/>
      </g>
     </g>
    </g>
    <g id="xtick_6">
     <g id="line2d_6">
      <g>
       <use xlink:href="#m4dd57f9490" x="497.822199" y="282.744958" style="stroke: #000000; stroke-width: 0.8"/>
      </g>
     </g>
     <g id="text_6">
      <!-- BM6 -->
      <g transform="translate(492.047677 310.569253) rotate(-45) scale(0.1 -0.1)">
       <defs>
        <path id="DejaVuSans-36" d="M 2113 2584 
Q 1688 2584 1439 2293 
Q 1191 2003 1191 1497 
Q 1191 994 1439 701 
Q 1688 409 2113 409 
Q 2538 409 2786 701 
Q 3034 994 3034 1497 
Q 3034 2003 2786 2293 
Q 2538 2584 2113 2584 
z
M 3366 4563 
L 3366 3988 
Q 3128 4100 2886 4159 
Q 2644 4219 2406 4219 
Q 1781 4219 1451 3797 
Q 1122 3375 1075 2522 
Q 1259 2794 1537 2939 
Q 1816 3084 2150 3084 
Q 2853 3084 3261 2657 
Q 3669 2231 3669 1497 
Q 3669 778 3244 343 
Q 2819 -91 2113 -91 
Q 1303 -91 875 529 
Q 447 1150 447 2328 
Q 447 3434 972 4092 
Q 1497 4750 2381 4750 
Q 2619 4750 2861 4703 
Q 3103 4656 3366 4563 
z
" transform="scale(0.015625)"/>
       </defs>
       <use xlink:href="#DejaVuSans-42"/>
       <use xlink:href="#DejaVuSans-4d" transform="translate(68.603516 0)"/>
       <use xlink:href="#DejaVuSans-36" transform="translate(154.882812 0)"/>
      </g>
     </g>
    </g>
    <g id="xtick_7">
     <g id="line2d_7">
      <g>
       <use xlink:href="#m4dd57f9490" x="570.496596" y="282.744958" style="stroke: #000000; stroke-width: 0.8"/>
      </g>
     </g>
     <g id="text_7">
      <!-- BM7 -->
      <g transform="translate(564.722074 310.569253) rotate(-45) scale(0.1 -0.1)">
       <defs>
        <path id="DejaVuSans-37" d="M 525 4666 
L 3525 4666 
L 3525 4397 
L 1831 0 
L 1172 0 
L 2766 4134 
L 525 4134 
L 525 4666 
z
" transform="scale(0.015625)"/>
       </defs>
       <use xlink:href="#DejaVuSans-42"/>
       <use xlink:href="#DejaVuSans-4d" transform="translate(68.603516 0)"/>
       <use xlink:href="#DejaVuSans-37" transform="translate(154.882812 0)"/>
      </g>
     </g>
    </g>
    <g id="xtick_8">
     <g id="line2d_8">
      <g>
       <use xlink:href="#m4dd57f9490" x="643.170993" y="282.744958" style="stroke: #000000; stroke-width: 0.8"/>
      </g>
     </g>
     <g id="text_8">
      <!-- BM_SYN_L -->
      <g transform="translate(626.930739 331.054357) rotate(-45) scale(0.1 -0.1)">
       <defs>
        <path id="DejaVuSans-5f" d="M 3263 -1063 
L 3263 -1509 
L -63 -1509 
L -63 -1063 
L 3263 -1063 
z
" transform="scale(0.015625)"/>
        <path id="DejaVuSans-53" d="M 3425 4513 
L 3425 3897 
Q 3066 4069 2747 4153 
Q 2428 4238 2131 4238 
Q 1616 4238 1336 4038 
Q 1056 3838 1056 3469 
Q 1056 3159 1242 3001 
Q 1428 2844 1947 2747 
L 2328 2669 
Q 3034 2534 3370 2195 
Q 3706 1856 3706 1288 
Q 3706 609 3251 259 
Q 2797 -91 1919 -91 
Q 1588 -91 1214 -16 
Q 841 59 441 206 
L 441 856 
Q 825 641 1194 531 
Q 1563 422 1919 422 
Q 2459 422 2753 634 
Q 3047 847 3047 1241 
Q 3047 1584 2836 1778 
Q 2625 1972 2144 2069 
L 1759 2144 
Q 1053 2284 737 2584 
Q 422 2884 422 3419 
Q 422 4038 858 4394 
Q 1294 4750 2059 4750 
Q 2388 4750 2728 4690 
Q 3069 4631 3425 4513 
z
" transform="scale(0.015625)"/>
        <path id="DejaVuSans-59" d="M -13 4666 
L 666 4666 
L 1959 2747 
L 3244 4666 
L 3922 4666 
L 2272 2222 
L 2272 0 
L 1638 0 
L 1638 2222 
L -13 4666 
z
" transform="scale(0.015625)"/>
        <path id="DejaVuSans-4e" d="M 628 4666 
L 1478 4666 
L 3547 763 
L 3547 4666 
L 4159 4666 
L 4159 0 
L 3309 0 
L 1241 3903 
L 1241 0 
L 628 0 
L 628 4666 
z
" transform="scale(0.015625)"/>
        <path id="DejaVuSans-4c" d="M 628 4666 
L 1259 4666 
L 1259 531 
L 3531 531 
L 3531 0 
L 628 0 
L 628 4666 
z
" transform="scale(0.015625)"/>
       </defs>
       <use xlink:href="#DejaVuSans-42"/>
       <use xlink:href="#DejaVuSans-4d" transform="translate(68.603516 0)"/>
       <use xlink:href="#DejaVuSans-5f" transform="translate(154.882812 0)"/>
       <use xlink:href="#DejaVuSans-53" transform="translate(204.882812 0)"/>
       <use xlink:href="#DejaVuSans-59" transform="translate(268.359375 0)"/>
       <use xlink:href="#DejaVuSans-4e" transform="translate(329.443359 0)"/>
       <use xlink:href="#DejaVuSans-5f" transform="translate(404.248047 0)"/>
       <use xlink:href="#DejaVuSans-4c" transform="translate(454.248047 0)"/>
      </g>
     </g>
    </g>
    <g id="xtick_9">
     <g id="line2d_9">
      <g>
       <use xlink:href="#m4dd57f9490" x="715.84539" y="282.744958" style="stroke: #000000; stroke-width: 0.8"/>
      </g>
     </g>
     <g id="text_9">
      <!-- BM_SYN_M -->
      <g transform="translate(698.524588 333.215452) rotate(-45) scale(0.1 -0.1)">
       <use xlink:href="#DejaVuSans-42"/>
       <use xlink:href="#DejaVuSans-4d" transform="translate(68.603516 0)"/>
       <use xlink:href="#DejaVuSans-5f" transform="translate(154.882812 0)"/>
       <use xlink:href="#DejaVuSans-53" transform="translate(204.882812 0)"/>
       <use xlink:href="#DejaVuSans-59" transform="translate(268.359375 0)"/>
       <use xlink:href="#DejaVuSans-4e" transform="translate(329.443359 0)"/>
       <use xlink:href="#DejaVuSans-5f" transform="translate(404.248047 0)"/>
       <use xlink:href="#DejaVuSans-4d" transform="translate(454.248047 0)"/>
      </g>
     </g>
    </g>
    <g id="xtick_10">
     <g id="line2d_10">
      <g>
       <use xlink:href="#m4dd57f9490" x="788.519787" y="282.744958" style="stroke: #000000; stroke-width: 0.8"/>
      </g>
     </g>
     <g id="text_10">
      <!-- BM_SYN_S -->
      <g transform="translate(772.004976 331.60347) rotate(-45) scale(0.1 -0.1)">
       <use xlink:href="#DejaVuSans-42"/>
       <use xlink:href="#DejaVuSans-4d" transform="translate(68.603516 0)"/>
       <use xlink:href="#DejaVuSans-5f" transform="translate(154.882812 0)"/>
       <use xlink:href="#DejaVuSans-53" transform="translate(204.882812 0)"/>
       <use xlink:href="#DejaVuSans-59" transform="translate(268.359375 0)"/>
       <use xlink:href="#DejaVuSans-4e" transform="translate(329.443359 0)"/>
       <use xlink:href="#DejaVuSans-5f" transform="translate(404.248047 0)"/>
       <use xlink:href="#DejaVuSans-53" transform="translate(454.248047 0)"/>
      </g>
     </g>
    </g>
    <g id="text_11">
     <!-- Benchmark -->
     <g transform="translate(433.006094 346.481115) scale(0.1 -0.1)">
      <defs>
       <path id="DejaVuSans-65" d="M 3597 1894 
L 3597 1613 
L 953 1613 
Q 991 1019 1311 708 
Q 1631 397 2203 397 
Q 2534 397 2845 478 
Q 3156 559 3463 722 
L 3463 178 
Q 3153 47 2828 -22 
Q 2503 -91 2169 -91 
Q 1331 -91 842 396 
Q 353 884 353 1716 
Q 353 2575 817 3079 
Q 1281 3584 2069 3584 
Q 2775 3584 3186 3129 
Q 3597 2675 3597 1894 
z
M 3022 2063 
Q 3016 2534 2758 2815 
Q 2500 3097 2075 3097 
Q 1594 3097 1305 2825 
Q 1016 2553 972 2059 
L 3022 2063 
z
" transform="scale(0.015625)"/>
       <path id="DejaVuSans-6e" d="M 3513 2113 
L 3513 0 
L 2938 0 
L 2938 2094 
Q 2938 2591 2744 2837 
Q 2550 3084 2163 3084 
Q 1697 3084 1428 2787 
Q 1159 2491 1159 1978 
L 1159 0 
L 581 0 
L 581 3500 
L 1159 3500 
L 1159 2956 
Q 1366 3272 1645 3428 
Q 1925 3584 2291 3584 
Q 2894 3584 3203 3211 
Q 3513 2838 3513 2113 
z
" transform="scale(0.015625)"/>
       <path id="DejaVuSans-63" d="M 3122 3366 
L 3122 2828 
Q 2878 2963 2633 3030 
Q 2388 3097 2138 3097 
Q 1578 3097 1268 2742 
Q 959 2388 959 1747 
Q 959 1106 1268 751 
Q 1578 397 2138 397 
Q 2388 397 2633 464 
Q 2878 531 3122 666 
L 3122 134 
Q 2881 22 2623 -34 
Q 2366 -91 2075 -91 
Q 1284 -91 818 406 
Q 353 903 353 1747 
Q 353 2603 823 3093 
Q 1294 3584 2113 3584 
Q 2378 3584 2631 3529 
Q 2884 3475 3122 3366 
z
" transform="scale(0.015625)"/>
       <path id="DejaVuSans-68" d="M 3513 2113 
L 3513 0 
L 2938 0 
L 2938 2094 
Q 2938 2591 2744 2837 
Q 2550 3084 2163 3084 
Q 1697 3084 1428 2787 
Q 1159 2491 1159 1978 
L 1159 0 
L 581 0 
L 581 4863 
L 1159 4863 
L 1159 2956 
Q 1366 3272 1645 3428 
Q 1925 3584 2291 3584 
Q 2894 3584 3203 3211 
Q 3513 2838 3513 2113 
z
" transform="scale(0.015625)"/>
       <path id="DejaVuSans-6d" d="M 3328 2828 
Q 3544 3216 3844 3400 
Q 4144 3584 4550 3584 
Q 5097 3584 5394 3201 
Q 5691 2819 5691 2113 
L 5691 0 
L 5113 0 
L 5113 2094 
Q 5113 2597 4934 2840 
Q 4756 3084 4391 3084 
Q 3944 3084 3684 2787 
Q 3425 2491 3425 1978 
L 3425 0 
L 2847 0 
L 2847 2094 
Q 2847 2600 2669 2842 
Q 2491 3084 2119 3084 
Q 1678 3084 1418 2786 
Q 1159 2488 1159 1978 
L 1159 0 
L 581 0 
L 581 3500 
L 1159 3500 
L 1159 2956 
Q 1356 3278 1631 3431 
Q 1906 3584 2284 3584 
Q 2666 3584 2933 3390 
Q 3200 3197 3328 2828 
z
" transform="scale(0.015625)"/>
       <path id="DejaVuSans-61" d="M 2194 1759 
Q 1497 1759 1228 1600 
Q 959 1441 959 1056 
Q 959 750 1161 570 
Q 1363 391 1709 391 
Q 2188 391 2477 730 
Q 2766 1069 2766 1631 
L 2766 1759 
L 2194 1759 
z
M 3341 1997 
L 3341 0 
L 2766 0 
L 2766 531 
Q 2569 213 2275 61 
Q 1981 -91 1556 -91 
Q 1019 -91 701 211 
Q 384 513 384 1019 
Q 384 1609 779 1909 
Q 1175 2209 1959 2209 
L 2766 2209 
L 2766 2266 
Q 2766 2663 2505 2880 
Q 2244 3097 1772 3097 
Q 1472 3097 1187 3025 
Q 903 2953 641 2809 
L 641 3341 
Q 956 3463 1253 3523 
Q 1550 3584 1831 3584 
Q 2591 3584 2966 3190 
Q 3341 2797 3341 1997 
z
" transform="scale(0.015625)"/>
       <path id="DejaVuSans-72" d="M 2631 2963 
Q 2534 3019 2420 3045 
Q 2306 3072 2169 3072 
Q 1681 3072 1420 2755 
Q 1159 2438 1159 1844 
L 1159 0 
L 581 0 
L 581 3500 
L 1159 3500 
L 1159 2956 
Q 1341 3275 1631 3429 
Q 1922 3584 2338 3584 
Q 2397 3584 2469 3576 
Q 2541 3569 2628 3553 
L 2631 2963 
z
" transform="scale(0.015625)"/>
       <path id="DejaVuSans-6b" d="M 581 4863 
L 1159 4863 
L 1159 1991 
L 2875 3500 
L 3609 3500 
L 1753 1863 
L 3688 0 
L 2938 0 
L 1159 1709 
L 1159 0 
L 581 0 
L 581 4863 
z
" transform="scale(0.015625)"/>
      </defs>
      <use xlink:href="#DejaVuSans-42"/>
      <use xlink:href="#DejaVuSans-65" transform="translate(68.603516 0)"/>
      <use xlink:href="#DejaVuSans-6e" transform="translate(130.126953 0)"/>
      <use xlink:href="#DejaVuSans-63" transform="translate(193.505859 0)"/>
      <use xlink:href="#DejaVuSans-68" transform="translate(248.486328 0)"/>
      <use xlink:href="#DejaVuSans-6d" transform="translate(311.865234 0)"/>
      <use xlink:href="#DejaVuSans-61" transform="translate(409.277344 0)"/>
      <use xlink:href="#DejaVuSans-72" transform="translate(470.556641 0)"/>
      <use xlink:href="#DejaVuSans-6b" transform="translate(511.669922 0)"/>
     </g>
    </g>
   </g>
   <g id="matplotlib.axis_2">
    <g id="ytick_1">
     <g id="line2d_11">
      <defs>
       <path id="m313a0c82dd" d="M 0 0 
L -3.5 0 
" style="stroke: #000000; stroke-width: 0.8"/>
      </defs>
      <g>
       <use xlink:href="#m313a0c82dd" x="69.77" y="282.744958" style="stroke: #000000; stroke-width: 0.8"/>
      </g>
     </g>
     <g id="text_12">
      <!-- 0 -->
      <g transform="translate(56.4075 286.544177) scale(0.1 -0.1)">
       <defs>
        <path id="DejaVuSans-30" d="M 2034 4250 
Q 1547 4250 1301 3770 
Q 1056 3291 1056 2328 
Q 1056 1369 1301 889 
Q 1547 409 2034 409 
Q 2525 409 2770 889 
Q 3016 1369 3016 2328 
Q 3016 3291 2770 3770 
Q 2525 4250 2034 4250 
z
M 2034 4750 
Q 2819 4750 3233 4129 
Q 3647 3509 3647 2328 
Q 3647 1150 3233 529 
Q 2819 -91 2034 -91 
Q 1250 -91 836 529 
Q 422 1150 422 2328 
Q 422 3509 836 4129 
Q 1250 4750 2034 4750 
z
" transform="scale(0.015625)"/>
       </defs>
       <use xlink:href="#DejaVuSans-30"/>
      </g>
     </g>
    </g>
    <g id="ytick_2">
     <g id="line2d_12">
      <g>
       <use xlink:href="#m313a0c82dd" x="69.77" y="247.45797" style="stroke: #000000; stroke-width: 0.8"/>
      </g>
     </g>
     <g id="text_13">
      <!-- 100000 -->
      <g transform="translate(24.595 251.257189) scale(0.1 -0.1)">
       <use xlink:href="#DejaVuSans-31"/>
       <use xlink:href="#DejaVuSans-30" transform="translate(63.623047 0)"/>
       <use xlink:href="#DejaVuSans-30" transform="translate(127.246094 0)"/>
       <use xlink:href="#DejaVuSans-30" transform="translate(190.869141 0)"/>
       <use xlink:href="#DejaVuSans-30" transform="translate(254.492188 0)"/>
       <use xlink:href="#DejaVuSans-30" transform="translate(318.115234 0)"/>
      </g>
     </g>
    </g>
    <g id="ytick_3">
     <g id="line2d_13">
      <g>
       <use xlink:href="#m313a0c82dd" x="69.77" y="212.170982" style="stroke: #000000; stroke-width: 0.8"/>
      </g>
     </g>
     <g id="text_14">
      <!-- 200000 -->
      <g transform="translate(24.595 215.970201) scale(0.1 -0.1)">
       <use xlink:href="#DejaVuSans-32"/>
       <use xlink:href="#DejaVuSans-30" transform="translate(63.623047 0)"/>
       <use xlink:href="#DejaVuSans-30" transform="translate(127.246094 0)"/>
       <use xlink:href="#DejaVuSans-30" transform="translate(190.869141 0)"/>
       <use xlink:href="#DejaVuSans-30" transform="translate(254.492188 0)"/>
       <use xlink:href="#DejaVuSans-30" transform="translate(318.115234 0)"/>
      </g>
     </g>
    </g>
    <g id="ytick_4">
     <g id="line2d_14">
      <g>
       <use xlink:href="#m313a0c82dd" x="69.77" y="176.883995" style="stroke: #000000; stroke-width: 0.8"/>
      </g>
     </g>
     <g id="text_15">
      <!-- 300000 -->
      <g transform="translate(24.595 180.683213) scale(0.1 -0.1)">
       <use xlink:href="#DejaVuSans-33"/>
       <use xlink:href="#DejaVuSans-30" transform="translate(63.623047 0)"/>
       <use xlink:href="#DejaVuSans-30" transform="translate(127.246094 0)"/>
       <use xlink:href="#DejaVuSans-30" transform="translate(190.869141 0)"/>
       <use xlink:href="#DejaVuSans-30" transform="translate(254.492188 0)"/>
       <use xlink:href="#DejaVuSans-30" transform="translate(318.115234 0)"/>
      </g>
     </g>
    </g>
    <g id="ytick_5">
     <g id="line2d_15">
      <g>
       <use xlink:href="#m313a0c82dd" x="69.77" y="141.597007" style="stroke: #000000; stroke-width: 0.8"/>
      </g>
     </g>
     <g id="text_16">
      <!-- 400000 -->
      <g transform="translate(24.595 145.396226) scale(0.1 -0.1)">
       <use xlink:href="#DejaVuSans-34"/>
       <use xlink:href="#DejaVuSans-30" transform="translate(63.623047 0)"/>
       <use xlink:href="#DejaVuSans-30" transform="translate(127.246094 0)"/>
       <use xlink:href="#DejaVuSans-30" transform="translate(190.869141 0)"/>
       <use xlink:href="#DejaVuSans-30" transform="translate(254.492188 0)"/>
       <use xlink:href="#DejaVuSans-30" transform="translate(318.115234 0)"/>
      </g>
     </g>
    </g>
    <g id="ytick_6">
     <g id="line2d_16">
      <g>
       <use xlink:href="#m313a0c82dd" x="69.77" y="106.310019" style="stroke: #000000; stroke-width: 0.8"/>
      </g>
     </g>
     <g id="text_17">
      <!-- 500000 -->
      <g transform="translate(24.595 110.109238) scale(0.1 -0.1)">
       <use xlink:href="#DejaVuSans-35"/>
       <use xlink:href="#DejaVuSans-30" transform="translate(63.623047 0)"/>
       <use xlink:href="#DejaVuSans-30" transform="translate(127.246094 0)"/>
       <use xlink:href="#DejaVuSans-30" transform="translate(190.869141 0)"/>
       <use xlink:href="#DejaVuSans-30" transform="translate(254.492188 0)"/>
       <use xlink:href="#DejaVuSans-30" transform="translate(318.115234 0)"/>
      </g>
     </g>
    </g>
    <g id="ytick_7">
     <g id="line2d_17">
      <g>
       <use xlink:href="#m313a0c82dd" x="69.77" y="71.023032" style="stroke: #000000; stroke-width: 0.8"/>
      </g>
     </g>
     <g id="text_18">
      <!-- 600000 -->
      <g transform="translate(24.595 74.82225) scale(0.1 -0.1)">
       <use xlink:href="#DejaVuSans-36"/>
       <use xlink:href="#DejaVuSans-30" transform="translate(63.623047 0)"/>
       <use xlink:href="#DejaVuSans-30" transform="translate(127.246094 0)"/>
       <use xlink:href="#DejaVuSans-30" transform="translate(190.869141 0)"/>
       <use xlink:href="#DejaVuSans-30" transform="translate(254.492188 0)"/>
       <use xlink:href="#DejaVuSans-30" transform="translate(318.115234 0)"/>
      </g>
     </g>
    </g>
    <g id="ytick_8">
     <g id="line2d_18">
      <g>
       <use xlink:href="#m313a0c82dd" x="69.77" y="35.736044" style="stroke: #000000; stroke-width: 0.8"/>
      </g>
     </g>
     <g id="text_19">
      <!-- 700000 -->
      <g transform="translate(24.595 39.535263) scale(0.1 -0.1)">
       <use xlink:href="#DejaVuSans-37"/>
       <use xlink:href="#DejaVuSans-30" transform="translate(63.623047 0)"/>
       <use xlink:href="#DejaVuSans-30" transform="translate(127.246094 0)"/>
       <use xlink:href="#DejaVuSans-30" transform="translate(190.869141 0)"/>
       <use xlink:href="#DejaVuSans-30" transform="translate(254.492188 0)"/>
       <use xlink:href="#DejaVuSans-30" transform="translate(318.115234 0)"/>
      </g>
     </g>
    </g>
    <g id="text_20">
     <!-- Binary size (bytes) -->
     <g transform="translate(18.515313 193.388885) rotate(-90) scale(0.1 -0.1)">
      <defs>
       <path id="DejaVuSans-69" d="M 603 3500 
L 1178 3500 
L 1178 0 
L 603 0 
L 603 3500 
z
M 603 4863 
L 1178 4863 
L 1178 4134 
L 603 4134 
L 603 4863 
z
" transform="scale(0.015625)"/>
       <path id="DejaVuSans-79" d="M 2059 -325 
Q 1816 -950 1584 -1140 
Q 1353 -1331 966 -1331 
L 506 -1331 
L 506 -850 
L 844 -850 
Q 1081 -850 1212 -737 
Q 1344 -625 1503 -206 
L 1606 56 
L 191 3500 
L 800 3500 
L 1894 763 
L 2988 3500 
L 3597 3500 
L 2059 -325 
z
" transform="scale(0.015625)"/>
       <path id="DejaVuSans-20" transform="scale(0.015625)"/>
       <path id="DejaVuSans-73" d="M 2834 3397 
L 2834 2853 
Q 2591 2978 2328 3040 
Q 2066 3103 1784 3103 
Q 1356 3103 1142 2972 
Q 928 2841 928 2578 
Q 928 2378 1081 2264 
Q 1234 2150 1697 2047 
L 1894 2003 
Q 2506 1872 2764 1633 
Q 3022 1394 3022 966 
Q 3022 478 2636 193 
Q 2250 -91 1575 -91 
Q 1294 -91 989 -36 
Q 684 19 347 128 
L 347 722 
Q 666 556 975 473 
Q 1284 391 1588 391 
Q 1994 391 2212 530 
Q 2431 669 2431 922 
Q 2431 1156 2273 1281 
Q 2116 1406 1581 1522 
L 1381 1569 
Q 847 1681 609 1914 
Q 372 2147 372 2553 
Q 372 3047 722 3315 
Q 1072 3584 1716 3584 
Q 2034 3584 2315 3537 
Q 2597 3491 2834 3397 
z
" transform="scale(0.015625)"/>
       <path id="DejaVuSans-7a" d="M 353 3500 
L 3084 3500 
L 3084 2975 
L 922 459 
L 3084 459 
L 3084 0 
L 275 0 
L 275 525 
L 2438 3041 
L 353 3041 
L 353 3500 
z
" transform="scale(0.015625)"/>
       <path id="DejaVuSans-28" d="M 1984 4856 
Q 1566 4138 1362 3434 
Q 1159 2731 1159 2009 
Q 1159 1288 1364 580 
Q 1569 -128 1984 -844 
L 1484 -844 
Q 1016 -109 783 600 
Q 550 1309 550 2009 
Q 550 2706 781 3412 
Q 1013 4119 1484 4856 
L 1984 4856 
z
" transform="scale(0.015625)"/>
       <path id="DejaVuSans-62" d="M 3116 1747 
Q 3116 2381 2855 2742 
Q 2594 3103 2138 3103 
Q 1681 3103 1420 2742 
Q 1159 2381 1159 1747 
Q 1159 1113 1420 752 
Q 1681 391 2138 391 
Q 2594 391 2855 752 
Q 3116 1113 3116 1747 
z
M 1159 2969 
Q 1341 3281 1617 3432 
Q 1894 3584 2278 3584 
Q 2916 3584 3314 3078 
Q 3713 2572 3713 1747 
Q 3713 922 3314 415 
Q 2916 -91 2278 -91 
Q 1894 -91 1617 61 
Q 1341 213 1159 525 
L 1159 0 
L 581 0 
L 581 4863 
L 1159 4863 
L 1159 2969 
z
" transform="scale(0.015625)"/>
       <path id="DejaVuSans-74" d="M 1172 4494 
L 1172 3500 
L 2356 3500 
L 2356 3053 
L 1172 3053 
L 1172 1153 
Q 1172 725 1289 603 
Q 1406 481 1766 481 
L 2356 481 
L 2356 0 
L 1766 0 
Q 1100 0 847 248 
Q 594 497 594 1153 
L 594 3053 
L 172 3053 
L 172 3500 
L 594 3500 
L 594 4494 
L 1172 4494 
z
" transform="scale(0.015625)"/>
       <path id="DejaVuSans-29" d="M 513 4856 
L 1013 4856 
Q 1481 4119 1714 3412 
Q 1947 2706 1947 2009 
Q 1947 1309 1714 600 
Q 1481 -109 1013 -844 
L 513 -844 
Q 928 -128 1133 580 
Q 1338 1288 1338 2009 
Q 1338 2731 1133 3434 
Q 928 4138 513 4856 
z
" transform="scale(0.015625)"/>
      </defs>
      <use xlink:href="#DejaVuSans-42"/>
      <use xlink:href="#DejaVuSans-69" transform="translate(68.603516 0)"/>
      <use xlink:href="#DejaVuSans-6e" transform="translate(96.386719 0)"/>
      <use xlink:href="#DejaVuSans-61" transform="translate(159.765625 0)"/>
      <use xlink:href="#DejaVuSans-72" transform="translate(221.044922 0)"/>
      <use xlink:href="#DejaVuSans-79" transform="translate(262.158203 0)"/>
      <use xlink:href="#DejaVuSans-20" transform="translate(321.337891 0)"/>
      <use xlink:href="#DejaVuSans-73" transform="translate(353.125 0)"/>
      <use xlink:href="#DejaVuSans-69" transform="translate(405.224609 0)"/>
      <use xlink:href="#DejaVuSans-7a" transform="translate(433.007812 0)"/>
      <use xlink:href="#DejaVuSans-65" transform="translate(485.498047 0)"/>
      <use xlink:href="#DejaVuSans-20" transform="translate(547.021484 0)"/>
      <use xlink:href="#DejaVuSans-28" transform="translate(578.808594 0)"/>
      <use xlink:href="#DejaVuSans-62" transform="translate(617.822266 0)"/>
      <use xlink:href="#DejaVuSans-79" transform="translate(681.298828 0)"/>
      <use xlink:href="#DejaVuSans-74" transform="translate(740.478516 0)"/>
      <use xlink:href="#DejaVuSans-65" transform="translate(779.6875 0)"/>
      <use xlink:href="#DejaVuSans-73" transform="translate(841.210938 0)"/>
      <use xlink:href="#DejaVuSans-29" transform="translate(893.310547 0)"/>
     </g>
    </g>
   </g>
   <g id="patch_63">
    <path d="M 69.77 282.744958 
L 69.77 10.8 
" style="fill: none; stroke: #000000; stroke-width: 0.8; stroke-linejoin: miter; stroke-linecap: square"/>
   </g>
   <g id="patch_64">
    <path d="M 853.2 282.744958 
L 853.2 10.8 
" style="fill: none; stroke: #000000; stroke-width: 0.8; stroke-linejoin: miter; stroke-linecap: square"/>
   </g>
   <g id="patch_65">
    <path d="M 69.77 282.744958 
L 853.2 282.744958 
" style="fill: none; stroke: #000000; stroke-width: 0.8; stroke-linejoin: miter; stroke-linecap: square"/>
   </g>
   <g id="patch_66">
    <path d="M 69.77 10.8 
L 853.2 10.8 
" style="fill: none; stroke: #000000; stroke-width: 0.8; stroke-linejoin: miter; stroke-linecap: square"/>
   </g>
   <g id="legend_1">
    <g id="patch_67">
     <path d="M 75.37 40.685 
L 304.59125 40.685 
Q 306.19125 40.685 306.19125 39.085 
L 306.19125 16.4 
Q 306.19125 14.8 304.59125 14.8 
L 75.37 14.8 
Q 73.77 14.8 73.77 16.4 
L 73.77 39.085 
Q 73.77 40.685 75.37 40.685 
z
" style="fill: #ffffff; opacity: 0.8; stroke: #cccccc; stroke-linejoin: miter"/>
    </g>
    <g id="patch_68">
     <path d="M 76.97 24.07875 
L 92.97 24.07875 
L 92.97 18.47875 
L 76.97 18.47875 
z
" style="fill: #1f77b4"/>
    </g>
    <g id="text_21">
     <!-- B1 -->
     <g transform="translate(99.37 24.07875) scale(0.08 -0.08)">
      <use xlink:href="#DejaVuSans-42"/>
      <use xlink:href="#DejaVuSans-31" transform="translate(68.603516 0)"/>
     </g>
    </g>
    <g id="patch_69">
     <path d="M 76.97 35.82125 
L 92.97 35.82125 
L 92.97 30.22125 
L 76.97 30.22125 
z
" style="fill: #ff7f0e"/>
    </g>
    <g id="text_22">
     <!-- B2 -->
     <g transform="translate(99.37 35.82125) scale(0.08 -0.08)">
      <use xlink:href="#DejaVuSans-42"/>
      <use xlink:href="#DejaVuSans-32" transform="translate(68.603516 0)"/>
     </g>
    </g>
    <g id="patch_70">
     <path d="M 125.94875 24.07875 
L 141.94875 24.07875 
L 141.94875 18.47875 
L 125.94875 18.47875 
z
" style="fill: #2ca02c"/>
    </g>
    <g id="text_23">
     <!-- B3 -->
     <g transform="translate(148.34875 24.07875) scale(0.08 -0.08)">
      <use xlink:href="#DejaVuSans-42"/>
      <use xlink:href="#DejaVuSans-33" transform="translate(68.603516 0)"/>
     </g>
    </g>
    <g id="patch_71">
     <path d="M 125.94875 35.82125 
L 141.94875 35.82125 
L 141.94875 30.22125 
L 125.94875 30.22125 
z
" style="fill: #d62728"/>
    </g>
    <g id="text_24">
     <!-- B4 -->
     <g transform="translate(148.34875 35.82125) scale(0.08 -0.08)">
      <use xlink:href="#DejaVuSans-42"/>
      <use xlink:href="#DejaVuSans-34" transform="translate(68.603516 0)"/>
     </g>
    </g>
    <g id="patch_72">
     <path d="M 174.9275 24.07875 
L 190.9275 24.07875 
L 190.9275 18.47875 
L 174.9275 18.47875 
z
" style="fill: #9467bd"/>
    </g>
    <g id="text_25">
     <!-- B5_DAG -->
     <g transform="translate(197.3275 24.07875) scale(0.08 -0.08)">
      <defs>
       <path id="DejaVuSans-44" d="M 1259 4147 
L 1259 519 
L 2022 519 
Q 2988 519 3436 956 
Q 3884 1394 3884 2338 
Q 3884 3275 3436 3711 
Q 2988 4147 2022 4147 
L 1259 4147 
z
M 628 4666 
L 1925 4666 
Q 3281 4666 3915 4102 
Q 4550 3538 4550 2338 
Q 4550 1131 3912 565 
Q 3275 0 1925 0 
L 628 0 
L 628 4666 
z
" transform="scale(0.015625)"/>
       <path id="DejaVuSans-41" d="M 2188 4044 
L 1331 1722 
L 3047 1722 
L 2188 4044 
z
M 1831 4666 
L 2547 4666 
L 4325 0 
L 3669 0 
L 3244 1197 
L 1141 1197 
L 716 0 
L 50 0 
L 1831 4666 
z
" transform="scale(0.015625)"/>
       <path id="DejaVuSans-47" d="M 3809 666 
L 3809 1919 
L 2778 1919 
L 2778 2438 
L 4434 2438 
L 4434 434 
Q 4069 175 3628 42 
Q 3188 -91 2688 -91 
Q 1594 -91 976 548 
Q 359 1188 359 2328 
Q 359 3472 976 4111 
Q 1594 4750 2688 4750 
Q 3144 4750 3555 4637 
Q 3966 4525 4313 4306 
L 4313 3634 
Q 3963 3931 3569 4081 
Q 3175 4231 2741 4231 
Q 1884 4231 1454 3753 
Q 1025 3275 1025 2328 
Q 1025 1384 1454 906 
Q 1884 428 2741 428 
Q 3075 428 3337 486 
Q 3600 544 3809 666 
z
" transform="scale(0.015625)"/>
      </defs>
      <use xlink:href="#DejaVuSans-42"/>
      <use xlink:href="#DejaVuSans-35" transform="translate(68.603516 0)"/>
      <use xlink:href="#DejaVuSans-5f" transform="translate(132.226562 0)"/>
      <use xlink:href="#DejaVuSans-44" transform="translate(182.226562 0)"/>
      <use xlink:href="#DejaVuSans-41" transform="translate(257.478516 0)"/>
      <use xlink:href="#DejaVuSans-47" transform="translate(324.136719 0)"/>
     </g>
    </g>
    <g id="patch_73">
     <path d="M 245.4575 24.07875 
L 261.4575 24.07875 
L 261.4575 18.47875 
L 245.4575 18.47875 
z
" style="fill: #8c564b"/>
    </g>
    <g id="text_26">
     <!-- B5_TREE -->
     <g transform="translate(267.8575 24.07875) scale(0.08 -0.08)">
      <defs>
       <path id="DejaVuSans-54" d="M -19 4666 
L 3928 4666 
L 3928 4134 
L 2272 4134 
L 2272 0 
L 1638 0 
L 1638 4134 
L -19 4134 
L -19 4666 
z
" transform="scale(0.015625)"/>
       <path id="DejaVuSans-52" d="M 2841 2188 
Q 3044 2119 3236 1894 
Q 3428 1669 3622 1275 
L 4263 0 
L 3584 0 
L 2988 1197 
Q 2756 1666 2539 1819 
Q 2322 1972 1947 1972 
L 1259 1972 
L 1259 0 
L 628 0 
L 628 4666 
L 2053 4666 
Q 2853 4666 3247 4331 
Q 3641 3997 3641 3322 
Q 3641 2881 3436 2590 
Q 3231 2300 2841 2188 
z
M 1259 4147 
L 1259 2491 
L 2053 2491 
Q 2509 2491 2742 2702 
Q 2975 2913 2975 3322 
Q 2975 3731 2742 3939 
Q 2509 4147 2053 4147 
L 1259 4147 
z
" transform="scale(0.015625)"/>
       <path id="DejaVuSans-45" d="M 628 4666 
L 3578 4666 
L 3578 4134 
L 1259 4134 
L 1259 2753 
L 3481 2753 
L 3481 2222 
L 1259 2222 
L 1259 531 
L 3634 531 
L 3634 0 
L 628 0 
L 628 4666 
z
" transform="scale(0.015625)"/>
      </defs>
      <use xlink:href="#DejaVuSans-42"/>
      <use xlink:href="#DejaVuSans-35" transform="translate(68.603516 0)"/>
      <use xlink:href="#DejaVuSans-5f" transform="translate(132.226562 0)"/>
      <use xlink:href="#DejaVuSans-54" transform="translate(182.226562 0)"/>
      <use xlink:href="#DejaVuSans-52" transform="translate(243.310547 0)"/>
      <use xlink:href="#DejaVuSans-45" transform="translate(312.792969 0)"/>
      <use xlink:href="#DejaVuSans-45" transform="translate(375.976562 0)"/>
     </g>
    </g>
   </g>
  </g>
 </g>
 <defs>
  <clipPath id="p8043729b0c">
   <rect x="69.77" y="10.8" width="783.43" height="271.944958"/>
  </clipPath>
 </defs>
</svg>
