<?xml version="1.0" encoding="utf-8" standalone="no"?>
<!DOCTYPE svg PUBLIC "-//W3C//DTD SVG 1.1//EN"
  "http://www.w3.org/Graphics/SVG/1.1/DTD/svg11.dtd">
<svg xmlns:xlink="http://www.w3.org/1999/xlink" width="864pt" height="360pt" viewBox="0 0 864 360" xmlns="http://www.w3.org/2000/svg" version="1.1">
 <metadata>
  <rdf:RDF xmlns:dc="http://purl.org/dc/elements/1.1/" xmlns:cc="http://creativecommons.org/ns#" xmlns:rdf="http://www.w3.org/1999/02/22-rdf-syntax-ns#">
   <cc:Work>
    <dc:type rdf:resource="http://purl.org/dc/dcmitype/StillImage"/>
    <dc:date>2026-03-26T18:33:47.864382</dc:date>
    <dc:format>image/svg+xml</dc:format>
    <dc:creator>
     <cc:Agent>
      <dc:title>Matplotlib v3.10.8, https://matplotlib.org/</dc:title>
     </cc:Agent>
    </dc:creator>
   </cc:Work>
  </rdf:RDF>
 </metadata>
 <defs>
  <style type="text/css">*{stroke-linejoin: round; stroke-linecap: butt}</style>
 </defs>
 <g id="figure_1">
  <g id="patch_1">
   <path d="M 0 360 
L 864 360 
L 864 0 
L 0 0 
z
" style="fill: #ffffff"/>
  </g>
  <g id="axes_1">
   <g id="patch_2">
    <path d="M 47.72 282.744958 
L 853.2 282.744958 
L 853.2 21.72 
L 47.72 21.72 
z
" style="fill: #ffffff"/>
   </g>
   <g id="patch_3">
    <path d="M 84.332727 282.744958 
L 94.295374 282.744958 
L 94.295374 175.361517 
L 84.332727 175.361517 
z
" clip-path="url(#pe8d93c437f)" style="fill: #1f77b4"/>
   </g>
   <g id="patch_4">
    <path d="M 159.052579 282.744958 
L 169.015226 282.744958 
L 169.015226 169.460991 
L 159.052579 169.460991 
z
" clip-path="url(#pe8d93c437f)" style="fill: #1f77b4"/>
   </g>
   <g id="patch_5">
    <path d="M 233.77243 282.744958 
L 243.735077 282.744958 
L 243.735077 106.5431 
L 233.77243 106.5431 
z
" clip-path="url(#pe8d93c437f)" style="fill: #1f77b4"/>
   </g>
   <g id="patch_6">
    <path d="M 308.492282 282.744958 
L 318.454929 282.744958 
L 318.454929 51.684579 
L 308.492282 51.684579 
z
" clip-path="url(#pe8d93c437f)" style="fill: #1f77b4"/>
   </g>
   <g id="patch_7">
    <path d="M 383.212134 282.744958 
L 393.17478 282.744958 
L 393.17478 136.450052 
L 383.212134 136.450052 
z
" clip-path="url(#pe8d93c437f)" style="fill: #1f77b4"/>
   </g>
   <g id="patch_8">
    <path d="M 457.931985 282.744958 
L 467.894632 282.744958 
L 467.894632 138.722237 
L 457.931985 138.722237 
z
" clip-path="url(#pe8d93c437f)" style="fill: #1f77b4"/>
   </g>
   <g id="patch_9">
    <path d="M 532.651837 282.744958 
L 542.614484 282.744958 
L 542.614484 102.882359 
L 532.651837 102.882359 
z
" clip-path="url(#pe8d93c437f)" style="fill: #1f77b4"/>
   </g>
   <g id="patch_10">
    <path d="M 607.371688 282.744958 
L 617.334335 282.744958 
L 617.334335 122.169354 
L 607.371688 122.169354 
z
" clip-path="url(#pe8d93c437f)" style="fill: #1f77b4"/>
   </g>
   <g id="patch_11">
    <path d="M 682.09154 282.744958 
L 692.054187 282.744958 
L 692.054187 107.90506 
L 682.09154 107.90506 
z
" clip-path="url(#pe8d93c437f)" style="fill: #1f77b4"/>
   </g>
   <g id="patch_12">
    <path d="M 756.811391 282.744958 
L 766.774038 282.744958 
L 766.774038 109.724727 
L 756.811391 109.724727 
z
" clip-path="url(#pe8d93c437f)" style="fill: #1f77b4"/>
   </g>
   <g id="patch_13">
    <path d="M 94.295374 282.744958 
L 104.258021 282.744958 
L 104.258021 170.634376 
L 94.295374 170.634376 
z
" clip-path="url(#pe8d93c437f)" style="fill: #ff7f0e"/>
   </g>
   <g id="patch_14">
    <path d="M 169.015226 282.744958 
L 178.977873 282.744958 
L 178.977873 167.667254 
L 169.015226 167.667254 
z
" clip-path="url(#pe8d93c437f)" style="fill: #ff7f0e"/>
   </g>
   <g id="patch_15">
    <path d="M 243.735077 282.744958 
L 253.697724 282.744958 
L 253.697724 115.321962 
L 243.735077 115.321962 
z
" clip-path="url(#pe8d93c437f)" style="fill: #ff7f0e"/>
   </g>
   <g id="patch_16">
    <path d="M 318.454929 282.744958 
L 328.417576 282.744958 
L 328.417576 65.683042 
L 318.454929 65.683042 
z
" clip-path="url(#pe8d93c437f)" style="fill: #ff7f0e"/>
   </g>
   <g id="patch_17">
    <path d="M 393.17478 282.744958 
L 403.137427 282.744958 
L 403.137427 135.121521 
L 393.17478 135.121521 
z
" clip-path="url(#pe8d93c437f)" style="fill: #ff7f0e"/>
   </g>
   <g id="patch_18">
    <path d="M 467.894632 282.744958 
L 477.857279 282.744958 
L 477.857279 134.263057 
L 467.894632 134.263057 
z
" clip-path="url(#pe8d93c437f)" style="fill: #ff7f0e"/>
   </g>
   <g id="patch_19">
    <path d="M 542.614484 282.744958 
L 552.57713 282.744958 
L 552.57713 112.731054 
L 542.614484 112.731054 
z
" clip-path="url(#pe8d93c437f)" style="fill: #ff7f0e"/>
   </g>
   <g id="patch_20">
    <path d="M 617.334335 282.744958 
L 627.296982 282.744958 
L 627.296982 120.942732 
L 617.334335 120.942732 
z
" clip-path="url(#pe8d93c437f)" style="fill: #ff7f0e"/>
   </g>
   <g id="patch_21">
    <path d="M 692.054187 282.744958 
L 702.016834 282.744958 
L 702.016834 112.558595 
L 692.054187 112.558595 
z
" clip-path="url(#pe8d93c437f)" style="fill: #ff7f0e"/>
   </g>
   <g id="patch_22">
    <path d="M 766.774038 282.744958 
L 776.736685 282.744958 
L 776.736685 124.029862 
L 766.774038 124.029862 
z
" clip-path="url(#pe8d93c437f)" style="fill: #ff7f0e"/>
   </g>
   <g id="patch_23">
    <path d="M 104.258021 282.744958 
L 114.220668 282.744958 
L 114.220668 165.340601 
L 104.258021 165.340601 
z
" clip-path="url(#pe8d93c437f)" style="fill: #2ca02c"/>
   </g>
   <g id="patch_24">
    <path d="M 178.977873 282.744958 
L 188.940519 282.744958 
L 188.940519 134.043591 
L 178.977873 134.043591 
z
" clip-path="url(#pe8d93c437f)" style="fill: #2ca02c"/>
   </g>
   <g id="patch_25">
    <path d="M 253.697724 282.744958 
L 263.660371 282.744958 
L 263.660371 112.79519 
L 253.697724 112.79519 
z
" clip-path="url(#pe8d93c437f)" style="fill: #2ca02c"/>
   </g>
   <g id="patch_26">
    <path d="M 328.417576 282.744958 
L 338.380223 282.744958 
L 338.380223 34.14976 
L 328.417576 34.14976 
z
" clip-path="url(#pe8d93c437f)" style="fill: #2ca02c"/>
   </g>
   <g id="patch_27">
    <path d="M 403.137427 282.744958 
L 413.100074 282.744958 
L 413.100074 101.277621 
L 403.137427 101.277621 
z
" clip-path="url(#pe8d93c437f)" style="fill: #2ca02c"/>
   </g>
   <g id="patch_28">
    <path d="M 477.857279 282.744958 
L 487.819926 282.744958 
L 487.819926 105.275938 
L 477.857279 105.275938 
z
" clip-path="url(#pe8d93c437f)" style="fill: #2ca02c"/>
   </g>
   <g id="patch_29">
    <path d="M 552.57713 282.744958 
L 562.539777 282.744958 
L 562.539777 80.32836 
L 552.57713 80.32836 
z
" clip-path="url(#pe8d93c437f)" style="fill: #2ca02c"/>
   </g>
   <g id="patch_30">
    <path d="M 627.296982 282.744958 
L 637.259629 282.744958 
L 637.259629 113.197554 
L 627.296982 113.197554 
z
" clip-path="url(#pe8d93c437f)" style="fill: #2ca02c"/>
   </g>
   <g id="patch_31">
    <path d="M 702.016834 282.744958 
L 711.979481 282.744958 
L 711.979481 102.775219 
L 702.016834 102.775219 
z
" clip-path="url(#pe8d93c437f)" style="fill: #2ca02c"/>
   </g>
   <g id="patch_32">
    <path d="M 776.736685 282.744958 
L 786.699332 282.744958 
L 786.699332 111.762722 
L 776.736685 111.762722 
z
" clip-path="url(#pe8d93c437f)" style="fill: #2ca02c"/>
   </g>
   <g id="patch_33">
    <path d="M 114.220668 282.744958 
L 124.183315 282.744958 
L 124.183315 165.290669 
L 114.220668 165.290669 
z
" clip-path="url(#pe8d93c437f)" style="fill: #d62728"/>
   </g>
   <g id="patch_34">
    <path d="M 188.940519 282.744958 
L 198.903166 282.744958 
L 198.903166 137.168962 
L 188.940519 137.168962 
z
" clip-path="url(#pe8d93c437f)" style="fill: #d62728"/>
   </g>
   <g id="patch_35">
    <path d="M 263.660371 282.744958 
L 273.623018 282.744958 
L 273.623018 108.590999 
L 263.660371 108.590999 
z
" clip-path="url(#pe8d93c437f)" style="fill: #d62728"/>
   </g>
   <g id="patch_36">
    <path d="M 338.380223 282.744958 
L 348.34287 282.744958 
L 348.34287 38.144107 
L 338.380223 38.144107 
z
" clip-path="url(#pe8d93c437f)" style="fill: #d62728"/>
   </g>
   <g id="patch_37">
    <path d="M 413.100074 282.744958 
L 423.062721 282.744958 
L 423.062721 105.960534 
L 413.100074 105.960534 
z
" clip-path="url(#pe8d93c437f)" style="fill: #d62728"/>
   </g>
   <g id="patch_38">
    <path d="M 487.819926 282.744958 
L 497.782573 282.744958 
L 497.782573 103.843317 
L 487.819926 103.843317 
z
" clip-path="url(#pe8d93c437f)" style="fill: #d62728"/>
   </g>
   <g id="patch_39">
    <path d="M 562.539777 282.744958 
L 572.502424 282.744958 
L 572.502424 83.283793 
L 562.539777 83.283793 
z
" clip-path="url(#pe8d93c437f)" style="fill: #d62728"/>
   </g>
   <g id="patch_40">
    <path d="M 637.259629 282.744958 
L 647.222276 282.744958 
L 647.222276 107.737364 
L 637.259629 107.737364 
z
" clip-path="url(#pe8d93c437f)" style="fill: #d62728"/>
   </g>
   <g id="patch_41">
    <path d="M 711.979481 282.744958 
L 721.942127 282.744958 
L 721.942127 100.348656 
L 711.979481 100.348656 
z
" clip-path="url(#pe8d93c437f)" style="fill: #d62728"/>
   </g>
   <g id="patch_42">
    <path d="M 786.699332 282.744958 
L 796.661979 282.744958 
L 796.661979 109.56811 
L 786.699332 109.56811 
z
" clip-path="url(#pe8d93c437f)" style="fill: #d62728"/>
   </g>
   <g id="patch_43">
    <path d="M 124.183315 282.744958 
L 134.145962 282.744958 
L 134.145962 157.55041 
L 124.183315 157.55041 
z
" clip-path="url(#pe8d93c437f)" style="fill: #9467bd"/>
   </g>
   <g id="patch_44">
    <path d="M 198.903166 282.744958 
L 208.865813 282.744958 
L 208.865813 139.755422 
L 198.903166 139.755422 
z
" clip-path="url(#pe8d93c437f)" style="fill: #9467bd"/>
   </g>
   <g id="patch_45">
    <path d="M 273.623018 282.744958 
L 283.585665 282.744958 
L 283.585665 117.931567 
L 273.623018 117.931567 
z
" clip-path="url(#pe8d93c437f)" style="fill: #9467bd"/>
   </g>
   <g id="patch_46">
    <path d="M 348.34287 282.744958 
L 358.305516 282.744958 
L 358.305516 60.423292 
L 348.34287 60.423292 
z
" clip-path="url(#pe8d93c437f)" style="fill: #9467bd"/>
   </g>
   <g id="patch_47">
    <path d="M 423.062721 282.744958 
L 433.025368 282.744958 
L 433.025368 94.751797 
L 423.062721 94.751797 
z
" clip-path="url(#pe8d93c437f)" style="fill: #9467bd"/>
   </g>
   <g id="patch_48">
    <path d="M 497.782573 282.744958 
L 507.74522 282.744958 
L 507.74522 96.408638 
L 497.782573 96.408638 
z
" clip-path="url(#pe8d93c437f)" style="fill: #9467bd"/>
   </g>
   <g id="patch_49">
    <path d="M 572.502424 282.744958 
L 582.465071 282.744958 
L 582.465071 87.773558 
L 572.502424 87.773558 
z
" clip-path="url(#pe8d93c437f)" style="fill: #9467bd"/>
   </g>
   <g id="patch_50">
    <path d="M 647.222276 282.744958 
L 657.184923 282.744958 
L 657.184923 137.519612 
L 647.222276 137.519612 
z
" clip-path="url(#pe8d93c437f)" style="fill: #9467bd"/>
   </g>
   <g id="patch_51">
    <path d="M 721.942127 282.744958 
L 731.904774 282.744958 
L 731.904774 126.434808 
L 721.942127 126.434808 
z
" clip-path="url(#pe8d93c437f)" style="fill: #9467bd"/>
   </g>
   <g id="patch_52">
    <path d="M 796.661979 282.744958 
L 806.624626 282.744958 
L 806.624626 127.930755 
L 796.661979 127.930755 
z
" clip-path="url(#pe8d93c437f)" style="fill: #9467bd"/>
   </g>
   <g id="patch_53">
    <path d="M 134.145962 282.744958 
L 144.108609 282.744958 
L 144.108609 148.771106 
L 134.145962 148.771106 
z
" clip-path="url(#pe8d93c437f)" style="fill: #8c564b"/>
   </g>
   <g id="patch_54">
    <path d="M 208.865813 282.744958 
L 218.82846 282.744958 
L 218.82846 133.269278 
L 208.865813 133.269278 
z
" clip-path="url(#pe8d93c437f)" style="fill: #8c564b"/>
   </g>
   <g id="patch_55">
    <path d="M 283.585665 282.744958 
L 293.548312 282.744958 
L 293.548312 114.855254 
L 283.585665 114.855254 
z
" clip-path="url(#pe8d93c437f)" style="fill: #8c564b"/>
   </g>
   <g id="patch_56">
    <path d="M 358.305516 282.744958 
L 368.268163 282.744958 
L 368.268163 43.086711 
L 358.305516 43.086711 
z
" clip-path="url(#pe8d93c437f)" style="fill: #8c564b"/>
   </g>
   <g id="patch_57">
    <path d="M 433.025368 282.744958 
L 442.988015 282.744958 
L 442.988015 103.211867 
L 433.025368 103.211867 
z
" clip-path="url(#pe8d93c437f)" style="fill: #8c564b"/>
   </g>
   <g id="patch_58">
    <path d="M 507.74522 282.744958 
L 517.707866 282.744958 
L 517.707866 101.000603 
L 507.74522 101.000603 
z
" clip-path="url(#pe8d93c437f)" style="fill: #8c564b"/>
   </g>
   <g id="patch_59">
    <path d="M 582.465071 282.744958 
L 592.427718 282.744958 
L 592.427718 86.208063 
L 582.465071 86.208063 
z
" clip-path="url(#pe8d93c437f)" style="fill: #8c564b"/>
   </g>
   <g id="patch_60">
    <path d="M 657.184923 282.744958 
L 667.14757 282.744958 
L 667.14757 114.18078 
L 657.184923 114.18078 
z
" clip-path="url(#pe8d93c437f)" style="fill: #8c564b"/>
   </g>
   <g id="patch_61">
    <path d="M 731.904774 282.744958 
L 741.867421 282.744958 
L 741.867421 103.910906 
L 731.904774 103.910906 
z
" clip-path="url(#pe8d93c437f)" style="fill: #8c564b"/>
   </g>
   <g id="patch_62">
    <path d="M 806.624626 282.744958 
L 816.587273 282.744958 
L 816.587273 105.726084 
L 806.624626 105.726084 
z
" clip-path="url(#pe8d93c437f)" style="fill: #8c564b"/>
   </g>
   <g id="matplotlib.axis_1">
    <g id="xtick_1">
     <g id="line2d_1">
      <defs>
       <path id="m87f3901267" d="M 0 0 
L 0 3.5 
" style="stroke: #000000; stroke-width: 0.8"/>
      </defs>
      <g>
       <use xlink:href="#m87f3901267" x="114.220668" y="282.744958" style="stroke: #000000; stroke-width: 0.8"/>
      </g>
     </g>
     <g id="text_1">
      <!-- BM1 -->
      <g transform="translate(108.446147 310.569253) rotate(-45) scale(0.1 -0.1)">
       <defs>
        <path id="DejaVuSans-42" d="M 1259 2228 
L 1259 519 
L 2272 519 
Q 2781 519 3026 730 
Q 3272 941 3272 1375 
Q 3272 1813 3026 2020 
Q 2781 2228 2272 2228 
L 1259 2228 
z
M 1259 4147 
L 1259 2741 
L 2194 2741 
Q 2656 2741 2882 2914 
Q 3109 3088 3109 3444 
Q 3109 3797 2882 3972 
Q 2656 4147 2194 4147 
L 1259 4147 
z
M 628 4666 
L 2241 4666 
Q 2963 4666 3353 4366 
Q 3744 4066 3744 3513 
Q 3744 3084 3544 2831 
Q 3344 2578 2956 2516 
Q 3422 2416 3680 2098 
Q 3938 1781 3938 1306 
Q 3938 681 3513 340 
Q 3088 0 2303 0 
L 628 0 
L 628 4666 
z
" transform="scale(0.015625)"/>
        <path id="DejaVuSans-4d" d="M 628 4666 
L 1569 4666 
L 2759 1491 
L 3956 4666 
L 4897 4666 
L 4897 0 
L 4281 0 
L 4281 4097 
L 3078 897 
L 2444 897 
L 1241 4097 
L 1241 0 
L 628 0 
L 628 4666 
z
" transform="scale(0.015625)"/>
        <path id="DejaVuSans-31" d="M 794 531 
L 1825 531 
L 1825 4091 
L 703 3866 
L 703 4441 
L 1819 4666 
L 2450 4666 
L 2450 531 
L 3481 531 
L 3481 0 
L 794 0 
L 794 531 
z
" transform="scale(0.015625)"/>
       </defs>
       <use xlink:href="#DejaVuSans-42"/>
       <use xlink:href="#DejaVuSans-4d" transform="translate(68.603516 0)"/>
       <use xlink:href="#DejaVuSans-31" transform="translate(154.882812 0)"/>
      </g>
     </g>
    </g>
    <g id="xtick_2">
     <g id="line2d_2">
      <g>
       <use xlink:href="#m87f3901267" x="188.940519" y="282.744958" style="stroke: #000000; stroke-width: 0.8"/>
      </g>
     </g>
     <g id="text_2">
      <!-- BM2 -->
      <g transform="translate(183.165998 310.569253) rotate(-45) scale(0.1 -0.1)">
       <defs>
        <path id="DejaVuSans-32" d="M 1228 531 
L 3431 531 
L 3431 0 
L 469 0 
L 469 531 
Q 828 903 1448 1529 
Q 2069 2156 2228 2338 
Q 2531 2678 2651 2914 
Q 2772 3150 2772 3378 
Q 2772 3750 2511 3984 
Q 2250 4219 1831 4219 
Q 1534 4219 1204 4116 
Q 875 4013 500 3803 
L 500 4441 
Q 881 4594 1212 4672 
Q 1544 4750 1819 4750 
Q 2544 4750 2975 4387 
Q 3406 4025 3406 3419 
Q 3406 3131 3298 2873 
Q 3191 2616 2906 2266 
Q 2828 2175 2409 1742 
Q 1991 1309 1228 531 
z
" transform="scale(0.015625)"/>
       </defs>
       <use xlink:href="#DejaVuSans-42"/>
       <use xlink:href="#DejaVuSans-4d" transform="translate(68.603516 0)"/>
       <use xlink:href="#DejaVuSans-32" transform="translate(154.882812 0)"/>
      </g>
     </g>
    </g>
    <g id="xtick_3">
     <g id="line2d_3">
      <g>
       <use xlink:href="#m87f3901267" x="263.660371" y="282.744958" style="stroke: #000000; stroke-width: 0.8"/>
      </g>
     </g>
     <g id="text_3">
      <!-- BM3 -->
      <g transform="translate(257.88585 310.569253) rotate(-45) scale(0.1 -0.1)">
       <defs>
        <path id="DejaVuSans-33" d="M 2597 2516 
Q 3050 2419 3304 2112 
Q 3559 1806 3559 1356 
Q 3559 666 3084 287 
Q 2609 -91 1734 -91 
Q 1441 -91 1130 -33 
Q 819 25 488 141 
L 488 750 
Q 750 597 1062 519 
Q 1375 441 1716 441 
Q 2309 441 2620 675 
Q 2931 909 2931 1356 
Q 2931 1769 2642 2001 
Q 2353 2234 1838 2234 
L 1294 2234 
L 1294 2753 
L 1863 2753 
Q 2328 2753 2575 2939 
Q 2822 3125 2822 3475 
Q 2822 3834 2567 4026 
Q 2313 4219 1838 4219 
Q 1578 4219 1281 4162 
Q 984 4106 628 3988 
L 628 4550 
Q 988 4650 1302 4700 
Q 1616 4750 1894 4750 
Q 2613 4750 3031 4423 
Q 3450 4097 3450 3541 
Q 3450 3153 3228 2886 
Q 3006 2619 2597 2516 
z
" transform="scale(0.015625)"/>
       </defs>
       <use xlink:href="#DejaVuSans-42"/>
       <use xlink:href="#DejaVuSans-4d" transform="translate(68.603516 0)"/>
       <use xlink:href="#DejaVuSans-33" transform="translate(154.882812 0)"/>
      </g>
     </g>
    </g>
    <g id="xtick_4">
     <g id="line2d_4">
      <g>
       <use xlink:href="#m87f3901267" x="338.380223" y="282.744958" style="stroke: #000000; stroke-width: 0.8"/>
      </g>
     </g>
     <g id="text_4">
      <!-- BM4 -->
      <g transform="translate(332.605701 310.569253) rotate(-45) scale(0.1 -0.1)">
       <defs>
        <path id="DejaVuSans-34" d="M 2419 4116 
L 825 1625 
L 2419 1625 
L 2419 4116 
z
M 2253 4666 
L 3047 4666 
L 3047 1625 
L 3713 1625 
L 3713 1100 
L 3047 1100 
L 3047 0 
L 2419 0 
L 2419 1100 
L 313 1100 
L 313 1709 
L 2253 4666 
z
" transform="scale(0.015625)"/>
       </defs>
       <use xlink:href="#DejaVuSans-42"/>
       <use xlink:href="#DejaVuSans-4d" transform="translate(68.603516 0)"/>
       <use xlink:href="#DejaVuSans-34" transform="translate(154.882812 0)"/>
      </g>
     </g>
    </g>
    <g id="xtick_5">
     <g id="line2d_5">
      <g>
       <use xlink:href="#m87f3901267" x="413.100074" y="282.744958" style="stroke: #000000; stroke-width: 0.8"/>
      </g>
     </g>
     <g id="text_5">
      <!-- BM5 -->
      <g transform="translate(407.325553 310.569253) rotate(-45) scale(0.1 -0.1)">
       <defs>
        <path id="DejaVuSans-35" d="M 691 4666 
L 3169 4666 
L 3169 4134 
L 1269 4134 
L 1269 2991 
Q 1406 3038 1543 3061 
Q 1681 3084 1819 3084 
Q 2600 3084 3056 2656 
Q 3513 2228 3513 1497 
Q 3513 744 3044 326 
Q 2575 -91 1722 -91 
Q 1428 -91 1123 -41 
Q 819 9 494 109 
L 494 744 
Q 775 591 1075 516 
Q 1375 441 1709 441 
Q 2250 441 2565 725 
Q 2881 1009 2881 1497 
Q 2881 1984 2565 2268 
Q 2250 2553 1709 2553 
Q 1456 2553 1204 2497 
Q 953 2441 691 2322 
L 691 4666 
z
" transform="scale(0.015625)"/>
       </defs>
       <use xlink:href="#DejaVuSans-42"/>
       <use xlink:href="#DejaVuSans-4d" transform="translate(68.603516 0)"/>
       <use xlink:href="#DejaVuSans-35" transform="translate(154.882812 0)"/>
      </g>
     </g>
    </g>
    <g id="xtick_6">
     <g id="line2d_6">
      <g>
       <use xlink:href="#m87f3901267" x="487.819926" y="282.744958" style="stroke: #000000; stroke-width: 0.8"/>
      </g>
     </g>
     <g id="text_6">
      <!-- BM6 -->
      <g transform="translate(482.045405 310.569253) rotate(-45) scale(0.1 -0.1)">
       <defs>
        <path id="DejaVuSans-36" d="M 2113 2584 
Q 1688 2584 1439 2293 
Q 1191 2003 1191 1497 
Q 1191 994 1439 701 
Q 1688 409 2113 409 
Q 2538 409 2786 701 
Q 3034 994 3034 1497 
Q 3034 2003 2786 2293 
Q 2538 2584 2113 2584 
z
M 3366 4563 
L 3366 3988 
Q 3128 4100 2886 4159 
Q 2644 4219 2406 4219 
Q 1781 4219 1451 3797 
Q 1122 3375 1075 2522 
Q 1259 2794 1537 2939 
Q 1816 3084 2150 3084 
Q 2853 3084 3261 2657 
Q 3669 2231 3669 1497 
Q 3669 778 3244 343 
Q 2819 -91 2113 -91 
Q 1303 -91 875 529 
Q 447 1150 447 2328 
Q 447 3434 972 4092 
Q 1497 4750 2381 4750 
Q 2619 4750 2861 4703 
Q 3103 4656 3366 4563 
z
" transform="scale(0.015625)"/>
       </defs>
       <use xlink:href="#DejaVuSans-42"/>
       <use xlink:href="#DejaVuSans-4d" transform="translate(68.603516 0)"/>
       <use xlink:href="#DejaVuSans-36" transform="translate(154.882812 0)"/>
      </g>
     </g>
    </g>
    <g id="xtick_7">
     <g id="line2d_7">
      <g>
       <use xlink:href="#m87f3901267" x="562.539777" y="282.744958" style="stroke: #000000; stroke-width: 0.8"/>
      </g>
     </g>
     <g id="text_7">
      <!-- BM7 -->
      <g transform="translate(556.765256 310.569253) rotate(-45) scale(0.1 -0.1)">
       <defs>
        <path id="DejaVuSans-37" d="M 525 4666 
L 3525 4666 
L 3525 4397 
L 1831 0 
L 1172 0 
L 2766 4134 
L 525 4134 
L 525 4666 
z
" transform="scale(0.015625)"/>
       </defs>
       <use xlink:href="#DejaVuSans-42"/>
       <use xlink:href="#DejaVuSans-4d" transform="translate(68.603516 0)"/>
       <use xlink:href="#DejaVuSans-37" transform="translate(154.882812 0)"/>
      </g>
     </g>
    </g>
    <g id="xtick_8">
     <g id="line2d_8">
      <g>
       <use xlink:href="#m87f3901267" x="637.259629" y="282.744958" style="stroke: #000000; stroke-width: 0.8"/>
      </g>
     </g>
     <g id="text_8">
      <!-- BM_SYN_L -->
      <g transform="translate(621.019375 331.054357) rotate(-45) scale(0.1 -0.1)">
       <defs>
        <path id="DejaVuSans-5f" d="M 3263 -1063 
L 3263 -1509 
L -63 -1509 
L -63 -1063 
L 3263 -1063 
z
" transform="scale(0.015625)"/>
        <path id="DejaVuSans-53" d="M 3425 4513 
L 3425 3897 
Q 3066 4069 2747 4153 
Q 2428 4238 2131 4238 
Q 1616 4238 1336 4038 
Q 1056 3838 1056 3469 
Q 1056 3159 1242 3001 
Q 1428 2844 1947 2747 
L 2328 2669 
Q 3034 2534 3370 2195 
Q 3706 1856 3706 1288 
Q 3706 609 3251 259 
Q 2797 -91 1919 -91 
Q 1588 -91 1214 -16 
Q 841 59 441 206 
L 441 856 
Q 825 641 1194 531 
Q 1563 422 1919 422 
Q 2459 422 2753 634 
Q 3047 847 3047 1241 
Q 3047 1584 2836 1778 
Q 2625 1972 2144 2069 
L 1759 2144 
Q 1053 2284 737 2584 
Q 422 2884 422 3419 
Q 422 4038 858 4394 
Q 1294 4750 2059 4750 
Q 2388 4750 2728 4690 
Q 3069 4631 3425 4513 
z
" transform="scale(0.015625)"/>
        <path id="DejaVuSans-59" d="M -13 4666 
L 666 4666 
L 1959 2747 
L 3244 4666 
L 3922 4666 
L 2272 2222 
L 2272 0 
L 1638 0 
L 1638 2222 
L -13 4666 
z
" transform="scale(0.015625)"/>
        <path id="DejaVuSans-4e" d="M 628 4666 
L 1478 4666 
L 3547 763 
L 3547 4666 
L 4159 4666 
L 4159 0 
L 3309 0 
L 1241 3903 
L 1241 0 
L 628 0 
L 628 4666 
z
" transform="scale(0.015625)"/>
        <path id="DejaVuSans-4c" d="M 628 4666 
L 1259 4666 
L 1259 531 
L 3531 531 
L 3531 0 
L 628 0 
L 628 4666 
z
" transform="scale(0.015625)"/>
       </defs>
       <use xlink:href="#DejaVuSans-42"/>
       <use xlink:href="#DejaVuSans-4d" transform="translate(68.603516 0)"/>
       <use xlink:href="#DejaVuSans-5f" transform="translate(154.882812 0)"/>
       <use xlink:href="#DejaVuSans-53" transform="translate(204.882812 0)"/>
       <use xlink:href="#DejaVuSans-59" transform="translate(268.359375 0)"/>
       <use xlink:href="#DejaVuSans-4e" transform="translate(329.443359 0)"/>
       <use xlink:href="#DejaVuSans-5f" transform="translate(404.248047 0)"/>
       <use xlink:href="#DejaVuSans-4c" transform="translate(454.248047 0)"/>
      </g>
     </g>
    </g>
    <g id="xtick_9">
     <g id="line2d_9">
      <g>
       <use xlink:href="#m87f3901267" x="711.979481" y="282.744958" style="stroke: #000000; stroke-width: 0.8"/>
      </g>
     </g>
     <g id="text_9">
      <!-- BM_SYN_M -->
      <g transform="translate(694.658679 333.215452) rotate(-45) scale(0.1 -0.1)">
       <use xlink:href="#DejaVuSans-42"/>
       <use xlink:href="#DejaVuSans-4d" transform="translate(68.603516 0)"/>
       <use xlink:href="#DejaVuSans-5f" transform="translate(154.882812 0)"/>
       <use xlink:href="#DejaVuSans-53" transform="translate(204.882812 0)"/>
       <use xlink:href="#DejaVuSans-59" transform="translate(268.359375 0)"/>
       <use xlink:href="#DejaVuSans-4e" transform="translate(329.443359 0)"/>
       <use xlink:href="#DejaVuSans-5f" transform="translate(404.248047 0)"/>
       <use xlink:href="#DejaVuSans-4d" transform="translate(454.248047 0)"/>
      </g>
     </g>
    </g>
    <g id="xtick_10">
     <g id="line2d_10">
      <g>
       <use xlink:href="#m87f3901267" x="786.699332" y="282.744958" style="stroke: #000000; stroke-width: 0.8"/>
      </g>
     </g>
     <g id="text_10">
      <!-- BM_SYN_S -->
      <g transform="translate(770.184522 331.60347) rotate(-45) scale(0.1 -0.1)">
       <use xlink:href="#DejaVuSans-42"/>
       <use xlink:href="#DejaVuSans-4d" transform="translate(68.603516 0)"/>
       <use xlink:href="#DejaVuSans-5f" transform="translate(154.882812 0)"/>
       <use xlink:href="#DejaVuSans-53" transform="translate(204.882812 0)"/>
       <use xlink:href="#DejaVuSans-59" transform="translate(268.359375 0)"/>
       <use xlink:href="#DejaVuSans-4e" transform="translate(329.443359 0)"/>
       <use xlink:href="#DejaVuSans-5f" transform="translate(404.248047 0)"/>
       <use xlink:href="#DejaVuSans-53" transform="translate(454.248047 0)"/>
      </g>
     </g>
    </g>
    <g id="text_11">
     <!-- Benchmark -->
     <g transform="translate(421.981094 346.481115) scale(0.1 -0.1)">
      <defs>
       <path id="DejaVuSans-65" d="M 3597 1894 
L 3597 1613 
L 953 1613 
Q 991 1019 1311 708 
Q 1631 397 2203 397 
Q 2534 397 2845 478 
Q 3156 559 3463 722 
L 3463 178 
Q 3153 47 2828 -22 
Q 2503 -91 2169 -91 
Q 1331 -91 842 396 
Q 353 884 353 1716 
Q 353 2575 817 3079 
Q 1281 3584 2069 3584 
Q 2775 3584 3186 3129 
Q 3597 2675 3597 1894 
z
M 3022 2063 
Q 3016 2534 2758 2815 
Q 2500 3097 2075 3097 
Q 1594 3097 1305 2825 
Q 1016 2553 972 2059 
L 3022 2063 
z
" transform="scale(0.015625)"/>
       <path id="DejaVuSans-6e" d="M 3513 2113 
L 3513 0 
L 2938 0 
L 2938 2094 
Q 2938 2591 2744 2837 
Q 2550 3084 2163 3084 
Q 1697 3084 1428 2787 
Q 1159 2491 1159 1978 
L 1159 0 
L 581 0 
L 581 3500 
L 1159 3500 
L 1159 2956 
Q 1366 3272 1645 3428 
Q 1925 3584 2291 3584 
Q 2894 3584 3203 3211 
Q 3513 2838 3513 2113 
z
" transform="scale(0.015625)"/>
       <path id="DejaVuSans-63" d="M 3122 3366 
L 3122 2828 
Q 2878 2963 2633 3030 
Q 2388 3097 2138 3097 
Q 1578 3097 1268 2742 
Q 959 2388 959 1747 
Q 959 1106 1268 751 
Q 1578 397 2138 397 
Q 2388 397 2633 464 
Q 2878 531 3122 666 
L 3122 134 
Q 2881 22 2623 -34 
Q 2366 -91 2075 -91 
Q 1284 -91 818 406 
Q 353 903 353 1747 
Q 353 2603 823 3093 
Q 1294 3584 2113 3584 
Q 2378 3584 2631 3529 
Q 2884 3475 3122 3366 
z
" transform="scale(0.015625)"/>
       <path id="DejaVuSans-68" d="M 3513 2113 
L 3513 0 
L 2938 0 
L 2938 2094 
Q 2938 2591 2744 2837 
Q 2550 3084 2163 3084 
Q 1697 3084 1428 2787 
Q 1159 2491 1159 1978 
L 1159 0 
L 581 0 
L 581 4863 
L 1159 4863 
L 1159 2956 
Q 1366 3272 1645 3428 
Q 1925 3584 2291 3584 
Q 2894 3584 3203 3211 
Q 3513 2838 3513 2113 
z
" transform="scale(0.015625)"/>
       <path id="DejaVuSans-6d" d="M 3328 2828 
Q 3544 3216 3844 3400 
Q 4144 3584 4550 3584 
Q 5097 3584 5394 3201 
Q 5691 2819 5691 2113 
L 5691 0 
L 5113 0 
L 5113 2094 
Q 5113 2597 4934 2840 
Q 4756 3084 4391 3084 
Q 3944 3084 3684 2787 
Q 3425 2491 3425 1978 
L 3425 0 
L 2847 0 
L 2847 2094 
Q 2847 2600 2669 2842 
Q 2491 3084 2119 3084 
Q 1678 3084 1418 2786 
Q 1159 2488 1159 1978 
L 1159 0 
L 581 0 
L 581 3500 
L 1159 3500 
L 1159 2956 
Q 1356 3278 1631 3431 
Q 1906 3584 2284 3584 
Q 2666 3584 2933 3390 
Q 3200 3197 3328 2828 
z
" transform="scale(0.015625)"/>
       <path id="DejaVuSans-61" d="M 2194 1759 
Q 1497 1759 1228 1600 
Q 959 1441 959 1056 
Q 959 750 1161 570 
Q 1363 391 1709 391 
Q 2188 391 2477 730 
Q 2766 1069 2766 1631 
L 2766 1759 
L 2194 1759 
z
M 3341 1997 
L 3341 0 
L 2766 0 
L 2766 531 
Q 2569 213 2275 61 
Q 1981 -91 1556 -91 
Q 1019 -91 701 211 
Q 384 513 384 1019 
Q 384 1609 779 1909 
Q 1175 2209 1959 2209 
L 2766 2209 
L 2766 2266 
Q 2766 2663 2505 2880 
Q 2244 3097 1772 3097 
Q 1472 3097 1187 3025 
Q 903 2953 641 2809 
L 641 3341 
Q 956 3463 1253 3523 
Q 1550 3584 1831 3584 
Q 2591 3584 2966 3190 
Q 3341 2797 3341 1997 
z
" transform="scale(0.015625)"/>
       <path id="DejaVuSans-72" d="M 2631 2963 
Q 2534 3019 2420 3045 
Q 2306 3072 2169 3072 
Q 1681 3072 1420 2755 
Q 1159 2438 1159 1844 
L 1159 0 
L 581 0 
L 581 3500 
L 1159 3500 
L 1159 2956 
Q 1341 3275 1631 3429 
Q 1922 3584 2338 3584 
Q 2397 3584 2469 3576 
Q 2541 3569 2628 3553 
L 2631 2963 
z
" transform="scale(0.015625)"/>
       <path id="DejaVuSans-6b" d="M 581 4863 
L 1159 4863 
L 1159 1991 
L 2875 3500 
L 3609 3500 
L 1753 1863 
L 3688 0 
L 2938 0 
L 1159 1709 
L 1159 0 
L 581 0 
L 581 4863 
z
" transform="scale(0.015625)"/>
      </defs>
      <use xlink:href="#DejaVuSans-42"/>
      <use xlink:href="#DejaVuSans-65" transform="translate(68.603516 0)"/>
      <use xlink:href="#DejaVuSans-6e" transform="translate(130.126953 0)"/>
      <use xlink:href="#DejaVuSans-63" transform="translate(193.505859 0)"/>
      <use xlink:href="#DejaVuSans-68" transform="translate(248.486328 0)"/>
      <use xlink:href="#DejaVuSans-6d" transform="translate(311.865234 0)"/>
      <use xlink:href="#DejaVuSans-61" transform="translate(409.277344 0)"/>
      <use xlink:href="#DejaVuSans-72" transform="translate(470.556641 0)"/>
      <use xlink:href="#DejaVuSans-6b" transform="translate(511.669922 0)"/>
     </g>
    </g>
   </g>
   <g id="matplotlib.axis_2">
    <g id="ytick_1">
     <g id="line2d_11">
      <defs>
       <path id="mcf3a09e9c1" d="M 0 0 
L -3.5 0 
" style="stroke: #000000; stroke-width: 0.8"/>
      </defs>
      <g>
       <use xlink:href="#mcf3a09e9c1" x="47.72" y="282.744958" style="stroke: #000000; stroke-width: 0.8"/>
      </g>
     </g>
     <g id="text_12">
      <!-- 0.0 -->
      <g transform="translate(24.816875 286.544177) scale(0.1 -0.1)">
       <defs>
        <path id="DejaVuSans-30" d="M 2034 4250 
Q 1547 4250 1301 3770 
Q 1056 3291 1056 2328 
Q 1056 1369 1301 889 
Q 1547 409 2034 409 
Q 2525 409 2770 889 
Q 3016 1369 3016 2328 
Q 3016 3291 2770 3770 
Q 2525 4250 2034 4250 
z
M 2034 4750 
Q 2819 4750 3233 4129 
Q 3647 3509 3647 2328 
Q 3647 1150 3233 529 
Q 2819 -91 2034 -91 
Q 1250 -91 836 529 
Q 422 1150 422 2328 
Q 422 3509 836 4129 
Q 1250 4750 2034 4750 
z
" transform="scale(0.015625)"/>
        <path id="DejaVuSans-2e" d="M 684 794 
L 1344 794 
L 1344 0 
L 684 0 
L 684 794 
z
" transform="scale(0.015625)"/>
       </defs>
       <use xlink:href="#DejaVuSans-30"/>
       <use xlink:href="#DejaVuSans-2e" transform="translate(63.623047 0)"/>
       <use xlink:href="#DejaVuSans-30" transform="translate(95.410156 0)"/>
      </g>
     </g>
    </g>
    <g id="ytick_2">
     <g id="line2d_12">
      <g>
       <use xlink:href="#mcf3a09e9c1" x="47.72" y="249.555669" style="stroke: #000000; stroke-width: 0.8"/>
      </g>
     </g>
     <g id="text_13">
      <!-- 0.5 -->
      <g transform="translate(24.816875 253.354887) scale(0.1 -0.1)">
       <use xlink:href="#DejaVuSans-30"/>
       <use xlink:href="#DejaVuSans-2e" transform="translate(63.623047 0)"/>
       <use xlink:href="#DejaVuSans-35" transform="translate(95.410156 0)"/>
      </g>
     </g>
    </g>
    <g id="ytick_3">
     <g id="line2d_13">
      <g>
       <use xlink:href="#mcf3a09e9c1" x="47.72" y="216.366379" style="stroke: #000000; stroke-width: 0.8"/>
      </g>
     </g>
     <g id="text_14">
      <!-- 1.0 -->
      <g transform="translate(24.816875 220.165598) scale(0.1 -0.1)">
       <use xlink:href="#DejaVuSans-31"/>
       <use xlink:href="#DejaVuSans-2e" transform="translate(63.623047 0)"/>
       <use xlink:href="#DejaVuSans-30" transform="translate(95.410156 0)"/>
      </g>
     </g>
    </g>
    <g id="ytick_4">
     <g id="line2d_14">
      <g>
       <use xlink:href="#mcf3a09e9c1" x="47.72" y="183.17709" style="stroke: #000000; stroke-width: 0.8"/>
      </g>
     </g>
     <g id="text_15">
      <!-- 1.5 -->
      <g transform="translate(24.816875 186.976309) scale(0.1 -0.1)">
       <use xlink:href="#DejaVuSans-31"/>
       <use xlink:href="#DejaVuSans-2e" transform="translate(63.623047 0)"/>
       <use xlink:href="#DejaVuSans-35" transform="translate(95.410156 0)"/>
      </g>
     </g>
    </g>
    <g id="ytick_5">
     <g id="line2d_15">
      <g>
       <use xlink:href="#mcf3a09e9c1" x="47.72" y="149.987801" style="stroke: #000000; stroke-width: 0.8"/>
      </g>
     </g>
     <g id="text_16">
      <!-- 2.0 -->
      <g transform="translate(24.816875 153.787019) scale(0.1 -0.1)">
       <use xlink:href="#DejaVuSans-32"/>
       <use xlink:href="#DejaVuSans-2e" transform="translate(63.623047 0)"/>
       <use xlink:href="#DejaVuSans-30" transform="translate(95.410156 0)"/>
      </g>
     </g>
    </g>
    <g id="ytick_6">
     <g id="line2d_16">
      <g>
       <use xlink:href="#mcf3a09e9c1" x="47.72" y="116.798511" style="stroke: #000000; stroke-width: 0.8"/>
      </g>
     </g>
     <g id="text_17">
      <!-- 2.5 -->
      <g transform="translate(24.816875 120.59773) scale(0.1 -0.1)">
       <use xlink:href="#DejaVuSans-32"/>
       <use xlink:href="#DejaVuSans-2e" transform="translate(63.623047 0)"/>
       <use xlink:href="#DejaVuSans-35" transform="translate(95.410156 0)"/>
      </g>
     </g>
    </g>
    <g id="ytick_7">
     <g id="line2d_17">
      <g>
       <use xlink:href="#mcf3a09e9c1" x="47.72" y="83.609222" style="stroke: #000000; stroke-width: 0.8"/>
      </g>
     </g>
     <g id="text_18">
      <!-- 3.0 -->
      <g transform="translate(24.816875 87.408441) scale(0.1 -0.1)">
       <use xlink:href="#DejaVuSans-33"/>
       <use xlink:href="#DejaVuSans-2e" transform="translate(63.623047 0)"/>
       <use xlink:href="#DejaVuSans-30" transform="translate(95.410156 0)"/>
      </g>
     </g>
    </g>
    <g id="ytick_8">
     <g id="line2d_18">
      <g>
       <use xlink:href="#mcf3a09e9c1" x="47.72" y="50.419933" style="stroke: #000000; stroke-width: 0.8"/>
      </g>
     </g>
     <g id="text_19">
      <!-- 3.5 -->
      <g transform="translate(24.816875 54.219151) scale(0.1 -0.1)">
       <use xlink:href="#DejaVuSans-33"/>
       <use xlink:href="#DejaVuSans-2e" transform="translate(63.623047 0)"/>
       <use xlink:href="#DejaVuSans-35" transform="translate(95.410156 0)"/>
      </g>
     </g>
    </g>
    <g id="text_20">
     <!-- Bytes per second -->
     <g transform="translate(18.737188 195.580916) rotate(-90) scale(0.1 -0.1)">
      <defs>
       <path id="DejaVuSans-79" d="M 2059 -325 
Q 1816 -950 1584 -1140 
Q 1353 -1331 966 -1331 
L 506 -1331 
L 506 -850 
L 844 -850 
Q 1081 -850 1212 -737 
Q 1344 -625 1503 -206 
L 1606 56 
L 191 3500 
L 800 3500 
L 1894 763 
L 2988 3500 
L 3597 3500 
L 2059 -325 
z
" transform="scale(0.015625)"/>
       <path id="DejaVuSans-74" d="M 1172 4494 
L 1172 3500 
L 2356 3500 
L 2356 3053 
L 1172 3053 
L 1172 1153 
Q 1172 725 1289 603 
Q 1406 481 1766 481 
L 2356 481 
L 2356 0 
L 1766 0 
Q 1100 0 847 248 
Q 594 497 594 1153 
L 594 3053 
L 172 3053 
L 172 3500 
L 594 3500 
L 594 4494 
L 1172 4494 
z
" transform="scale(0.015625)"/>
       <path id="DejaVuSans-73" d="M 2834 3397 
L 2834 2853 
Q 2591 2978 2328 3040 
Q 2066 3103 1784 3103 
Q 1356 3103 1142 2972 
Q 928 2841 928 2578 
Q 928 2378 1081 2264 
Q 1234 2150 1697 2047 
L 1894 2003 
Q 2506 1872 2764 1633 
Q 3022 1394 3022 966 
Q 3022 478 2636 193 
Q 2250 -91 1575 -91 
Q 1294 -91 989 -36 
Q 684 19 347 128 
L 347 722 
Q 666 556 975 473 
Q 1284 391 1588 391 
Q 1994 391 2212 530 
Q 2431 669 2431 922 
Q 2431 1156 2273 1281 
Q 2116 1406 1581 1522 
L 1381 1569 
Q 847 1681 609 1914 
Q 372 2147 372 2553 
Q 372 3047 722 3315 
Q 1072 3584 1716 3584 
Q 2034 3584 2315 3537 
Q 2597 3491 2834 3397 
z
" transform="scale(0.015625)"/>
       <path id="DejaVuSans-20" transform="scale(0.015625)"/>
       <path id="DejaVuSans-70" d="M 1159 525 
L 1159 -1331 
L 581 -1331 
L 581 3500 
L 1159 3500 
L 1159 2969 
Q 1341 3281 1617 3432 
Q 1894 3584 2278 3584 
Q 2916 3584 3314 3078 
Q 3713 2572 3713 1747 
Q 3713 922 3314 415 
Q 2916 -91 2278 -91 
Q 1894 -91 1617 61 
Q 1341 213 1159 525 
z
M 3116 1747 
Q 3116 2381 2855 2742 
Q 2594 3103 2138 3103 
Q 1681 3103 1420 2742 
Q 1159 2381 1159 1747 
Q 1159 1113 1420 752 
Q 1681 391 2138 391 
Q 2594 391 2855 752 
Q 3116 1113 3116 1747 
z
" transform="scale(0.015625)"/>
       <path id="DejaVuSans-6f" d="M 1959 3097 
Q 1497 3097 1228 2736 
Q 959 2375 959 1747 
Q 959 1119 1226 758 
Q 1494 397 1959 397 
Q 2419 397 2687 759 
Q 2956 1122 2956 1747 
Q 2956 2369 2687 2733 
Q 2419 3097 1959 3097 
z
M 1959 3584 
Q 2709 3584 3137 3096 
Q 3566 2609 3566 1747 
Q 3566 888 3137 398 
Q 2709 -91 1959 -91 
Q 1206 -91 779 398 
Q 353 888 353 1747 
Q 353 2609 779 3096 
Q 1206 3584 1959 3584 
z
" transform="scale(0.015625)"/>
       <path id="DejaVuSans-64" d="M 2906 2969 
L 2906 4863 
L 3481 4863 
L 3481 0 
L 2906 0 
L 2906 525 
Q 2725 213 2448 61 
Q 2172 -91 1784 -91 
Q 1150 -91 751 415 
Q 353 922 353 1747 
Q 353 2572 751 3078 
Q 1150 3584 1784 3584 
Q 2172 3584 2448 3432 
Q 2725 3281 2906 2969 
z
M 947 1747 
Q 947 1113 1208 752 
Q 1469 391 1925 391 
Q 2381 391 2643 752 
Q 2906 1113 2906 1747 
Q 2906 2381 2643 2742 
Q 2381 3103 1925 3103 
Q 1469 3103 1208 2742 
Q 947 2381 947 1747 
z
" transform="scale(0.015625)"/>
      </defs>
      <use xlink:href="#DejaVuSans-42"/>
      <use xlink:href="#DejaVuSans-79" transform="translate(68.603516 0)"/>
      <use xlink:href="#DejaVuSans-74" transform="translate(127.783203 0)"/>
      <use xlink:href="#DejaVuSans-65" transform="translate(166.992188 0)"/>
      <use xlink:href="#DejaVuSans-73" transform="translate(228.515625 0)"/>
      <use xlink:href="#DejaVuSans-20" transform="translate(280.615234 0)"/>
      <use xlink:href="#DejaVuSans-70" transform="translate(312.402344 0)"/>
      <use xlink:href="#DejaVuSans-65" transform="translate(375.878906 0)"/>
      <use xlink:href="#DejaVuSans-72" transform="translate(437.402344 0)"/>
      <use xlink:href="#DejaVuSans-20" transform="translate(478.515625 0)"/>
      <use xlink:href="#DejaVuSans-73" transform="translate(510.302734 0)"/>
      <use xlink:href="#DejaVuSans-65" transform="translate(562.402344 0)"/>
      <use xlink:href="#DejaVuSans-63" transform="translate(623.925781 0)"/>
      <use xlink:href="#DejaVuSans-6f" transform="translate(678.90625 0)"/>
      <use xlink:href="#DejaVuSans-6e" transform="translate(740.087891 0)"/>
      <use xlink:href="#DejaVuSans-64" transform="translate(803.466797 0)"/>
     </g>
    </g>
    <g id="text_21">
     <!-- 1e8 -->
     <g transform="translate(47.72 18.72) scale(0.1 -0.1)">
      <defs>
       <path id="DejaVuSans-38" d="M 2034 2216 
Q 1584 2216 1326 1975 
Q 1069 1734 1069 1313 
Q 1069 891 1326 650 
Q 1584 409 2034 409 
Q 2484 409 2743 651 
Q 3003 894 3003 1313 
Q 3003 1734 2745 1975 
Q 2488 2216 2034 2216 
z
M 1403 2484 
Q 997 2584 770 2862 
Q 544 3141 544 3541 
Q 544 4100 942 4425 
Q 1341 4750 2034 4750 
Q 2731 4750 3128 4425 
Q 3525 4100 3525 3541 
Q 3525 3141 3298 2862 
Q 3072 2584 2669 2484 
Q 3125 2378 3379 2068 
Q 3634 1759 3634 1313 
Q 3634 634 3220 271 
Q 2806 -91 2034 -91 
Q 1263 -91 848 271 
Q 434 634 434 1313 
Q 434 1759 690 2068 
Q 947 2378 1403 2484 
z
M 1172 3481 
Q 1172 3119 1398 2916 
Q 1625 2713 2034 2713 
Q 2441 2713 2670 2916 
Q 2900 3119 2900 3481 
Q 2900 3844 2670 4047 
Q 2441 4250 2034 4250 
Q 1625 4250 1398 4047 
Q 1172 3844 1172 3481 
z
" transform="scale(0.015625)"/>
      </defs>
      <use xlink:href="#DejaVuSans-31"/>
      <use xlink:href="#DejaVuSans-65" transform="translate(63.623047 0)"/>
      <use xlink:href="#DejaVuSans-38" transform="translate(125.146484 0)"/>
     </g>
    </g>
   </g>
   <g id="patch_63">
    <path d="M 47.72 282.744958 
L 47.72 21.72 
" style="fill: none; stroke: #000000; stroke-width: 0.8; stroke-linejoin: miter; stroke-linecap: square"/>
   </g>
   <g id="patch_64">
    <path d="M 853.2 282.744958 
L 853.2 21.72 
" style="fill: none; stroke: #000000; stroke-width: 0.8; stroke-linejoin: miter; stroke-linecap: square"/>
   </g>
   <g id="patch_65">
    <path d="M 47.72 282.744958 
L 853.2 282.744958 
" style="fill: none; stroke: #000000; stroke-width: 0.8; stroke-linejoin: miter; stroke-linecap: square"/>
   </g>
   <g id="patch_66">
    <path d="M 47.72 21.72 
L 853.2 21.72 
" style="fill: none; stroke: #000000; stroke-width: 0.8; stroke-linejoin: miter; stroke-linecap: square"/>
   </g>
   <g id="legend_1">
    <g id="patch_67">
     <path d="M 618.37875 51.605 
L 847.6 51.605 
Q 849.2 51.605 849.2 50.005 
L 849.2 27.32 
Q 849.2 25.72 847.6 25.72 
L 618.37875 25.72 
Q 616.77875 25.72 616.77875 27.32 
L 616.77875 50.005 
Q 616.77875 51.605 618.37875 51.605 
z
" style="fill: #ffffff; opacity: 0.8; stroke: #cccccc; stroke-linejoin: miter"/>
    </g>
    <g id="patch_68">
     <path d="M 619.97875 34.99875 
L 635.97875 34.99875 
L 635.97875 29.39875 
L 619.97875 29.39875 
z
" style="fill: #1f77b4"/>
    </g>
    <g id="text_22">
     <!-- B1 -->
     <g transform="translate(642.37875 34.99875) scale(0.08 -0.08)">
      <use xlink:href="#DejaVuSans-42"/>
      <use xlink:href="#DejaVuSans-31" transform="translate(68.603516 0)"/>
     </g>
    </g>
    <g id="patch_69">
     <path d="M 619.97875 46.74125 
L 635.97875 46.74125 
L 635.97875 41.14125 
L 619.97875 41.14125 
z
" style="fill: #ff7f0e"/>
    </g>
    <g id="text_23">
     <!-- B2 -->
     <g transform="translate(642.37875 46.74125) scale(0.08 -0.08)">
      <use xlink:href="#DejaVuSans-42"/>
      <use xlink:href="#DejaVuSans-32" transform="translate(68.603516 0)"/>
     </g>
    </g>
    <g id="patch_70">
     <path d="M 668.9575 34.99875 
L 684.9575 34.99875 
L 684.9575 29.39875 
L 668.9575 29.39875 
z
" style="fill: #2ca02c"/>
    </g>
    <g id="text_24">
     <!-- B3 -->
     <g transform="translate(691.3575 34.99875) scale(0.08 -0.08)">
      <use xlink:href="#DejaVuSans-42"/>
      <use xlink:href="#DejaVuSans-33" transform="translate(68.603516 0)"/>
     </g>
    </g>
    <g id="patch_71">
     <path d="M 668.9575 46.74125 
L 684.9575 46.74125 
L 684.9575 41.14125 
L 668.9575 41.14125 
z
" style="fill: #d62728"/>
    </g>
    <g id="text_25">
     <!-- B4 -->
     <g transform="translate(691.3575 46.74125) scale(0.08 -0.08)">
      <use xlink:href="#DejaVuSans-42"/>
      <use xlink:href="#DejaVuSans-34" transform="translate(68.603516 0)"/>
     </g>
    </g>
    <g id="patch_72">
     <path d="M 717.93625 34.99875 
L 733.93625 34.99875 
L 733.93625 29.39875 
L 717.93625 29.39875 
z
" style="fill: #9467bd"/>
    </g>
    <g id="text_26">
     <!-- B5_DAG -->
     <g transform="translate(740.33625 34.99875) scale(0.08 -0.08)">
      <defs>
       <path id="DejaVuSans-44" d="M 1259 4147 
L 1259 519 
L 2022 519 
Q 2988 519 3436 956 
Q 3884 1394 3884 2338 
Q 3884 3275 3436 3711 
Q 2988 4147 2022 4147 
L 1259 4147 
z
M 628 4666 
L 1925 4666 
Q 3281 4666 3915 4102 
Q 4550 3538 4550 2338 
Q 4550 1131 3912 565 
Q 3275 0 1925 0 
L 628 0 
L 628 4666 
z
" transform="scale(0.015625)"/>
       <path id="DejaVuSans-41" d="M 2188 4044 
L 1331 1722 
L 3047 1722 
L 2188 4044 
z
M 1831 4666 
L 2547 4666 
L 4325 0 
L 3669 0 
L 3244 1197 
L 1141 1197 
L 716 0 
L 50 0 
L 1831 4666 
z
" transform="scale(0.015625)"/>
       <path id="DejaVuSans-47" d="M 3809 666 
L 3809 1919 
L 2778 1919 
L 2778 2438 
L 4434 2438 
L 4434 434 
Q 4069 175 3628 42 
Q 3188 -91 2688 -91 
Q 1594 -91 976 548 
Q 359 1188 359 2328 
Q 359 3472 976 4111 
Q 1594 4750 2688 4750 
Q 3144 4750 3555 4637 
Q 3966 4525 4313 4306 
L 4313 3634 
Q 3963 3931 3569 4081 
Q 3175 4231 2741 4231 
Q 1884 4231 1454 3753 
Q 1025 3275 1025 2328 
Q 1025 1384 1454 906 
Q 1884 428 2741 428 
Q 3075 428 3337 486 
Q 3600 544 3809 666 
z
" transform="scale(0.015625)"/>
      </defs>
      <use xlink:href="#DejaVuSans-42"/>
      <use xlink:href="#DejaVuSans-35" transform="translate(68.603516 0)"/>
      <use xlink:href="#DejaVuSans-5f" transform="translate(132.226562 0)"/>
      <use xlink:href="#DejaVuSans-44" transform="translate(182.226562 0)"/>
      <use xlink:href="#DejaVuSans-41" transform="translate(257.478516 0)"/>
      <use xlink:href="#DejaVuSans-47" transform="translate(324.136719 0)"/>
     </g>
    </g>
    <g id="patch_73">
     <path d="M 788.46625 34.99875 
L 804.46625 34.99875 
L 804.46625 29.39875 
L 788.46625 29.39875 
z
" style="fill: #8c564b"/>
    </g>
    <g id="text_27">
     <!-- B5_TREE -->
     <g transform="translate(810.86625 34.99875) scale(0.08 -0.08)">
      <defs>
       <path id="DejaVuSans-54" d="M -19 4666 
L 3928 4666 
L 3928 4134 
L 2272 4134 
L 2272 0 
L 1638 0 
L 1638 4134 
L -19 4134 
L -19 4666 
z
" transform="scale(0.015625)"/>
       <path id="DejaVuSans-52" d="M 2841 2188 
Q 3044 2119 3236 1894 
Q 3428 1669 3622 1275 
L 4263 0 
L 3584 0 
L 2988 1197 
Q 2756 1666 2539 1819 
Q 2322 1972 1947 1972 
L 1259 1972 
L 1259 0 
L 628 0 
L 628 4666 
L 2053 4666 
Q 2853 4666 3247 4331 
Q 3641 3997 3641 3322 
Q 3641 2881 3436 2590 
Q 3231 2300 2841 2188 
z
M 1259 4147 
L 1259 2491 
L 2053 2491 
Q 2509 2491 2742 2702 
Q 2975 2913 2975 3322 
Q 2975 3731 2742 3939 
Q 2509 4147 2053 4147 
L 1259 4147 
z
" transform="scale(0.015625)"/>
       <path id="DejaVuSans-45" d="M 628 4666 
L 3578 4666 
L 3578 4134 
L 1259 4134 
L 1259 2753 
L 3481 2753 
L 3481 2222 
L 1259 2222 
L 1259 531 
L 3634 531 
L 3634 0 
L 628 0 
L 628 4666 
z
" transform="scale(0.015625)"/>
      </defs>
      <use xlink:href="#DejaVuSans-42"/>
      <use xlink:href="#DejaVuSans-35" transform="translate(68.603516 0)"/>
      <use xlink:href="#DejaVuSans-5f" transform="translate(132.226562 0)"/>
      <use xlink:href="#DejaVuSans-54" transform="translate(182.226562 0)"/>
      <use xlink:href="#DejaVuSans-52" transform="translate(243.310547 0)"/>
      <use xlink:href="#DejaVuSans-45" transform="translate(312.792969 0)"/>
      <use xlink:href="#DejaVuSans-45" transform="translate(375.976562 0)"/>
     </g>
    </g>
   </g>
  </g>
 </g>
 <defs>
  <clipPath id="pe8d93c437f">
   <rect x="47.72" y="21.72" width="805.48" height="261.024958"/>
  </clipPath>
 </defs>
</svg>
